<svg width="353" height="285" viewBox="0 0 353 285" fill="none" xmlns="http://www.w3.org/2000/svg">
<g filter="url(#filter0_d_82_2333)">
<path d="M134.531 42.4695C139.031 37.9687 145.136 35.4401 151.501 35.4401L202.499 35.4401C208.864 35.4401 214.969 37.9687 219.47 42.4695L255.531 78.5305C260.031 83.0314 262.56 89.1359 262.56 95.5011L262.56 146.499C262.56 152.864 260.031 158.969 255.531 163.47L219.47 199.531C214.969 204.031 208.864 206.56 202.499 206.56L151.501 206.56C145.136 206.56 139.031 204.031 134.531 199.531L98.4696 163.47C93.9688 158.969 91.4402 152.864 91.4402 146.499L91.4402 95.5011C91.4402 89.1359 93.9688 83.0314 98.4696 78.5305L134.531 42.4695Z" fill="#981F2B"/>
</g>
<rect y="219" width="353" height="38" rx="19" fill="white"/>
<rect x="33" y="247" width="285" height="38" rx="19" fill="white"/>
<path d="M30.531 245.126C29.367 245.126 28.305 244.856 27.345 244.316C26.385 243.764 25.623 243.002 25.059 242.03C24.507 241.046 24.231 239.942 24.231 238.718C24.231 237.494 24.507 236.396 25.059 235.424C25.623 234.44 26.385 233.678 27.345 233.138C28.305 232.586 29.367 232.31 30.531 232.31C31.707 232.31 32.775 232.586 33.735 233.138C34.695 233.678 35.451 234.434 36.003 235.406C36.555 236.378 36.831 237.482 36.831 238.718C36.831 239.954 36.555 241.058 36.003 242.03C35.451 243.002 34.695 243.764 33.735 244.316C32.775 244.856 31.707 245.126 30.531 245.126ZM30.531 243.704C31.407 243.704 32.193 243.5 32.889 243.092C33.597 242.684 34.149 242.102 34.545 241.346C34.953 240.59 35.157 239.714 35.157 238.718C35.157 237.71 34.953 236.834 34.545 236.09C34.149 235.334 33.603 234.752 32.907 234.344C32.211 233.936 31.419 233.732 30.531 233.732C29.643 233.732 28.851 233.936 28.155 234.344C27.459 234.752 26.907 235.334 26.499 236.09C26.103 236.834 25.905 237.71 25.905 238.718C25.905 239.714 26.103 240.59 26.499 241.346C26.907 242.102 27.459 242.684 28.155 243.092C28.863 243.5 29.655 243.704 30.531 243.704ZM43.2954 245.162C42.3714 245.162 41.5314 244.952 40.7754 244.532C40.0314 244.112 39.4434 243.518 39.0114 242.75C38.5914 241.97 38.3814 241.07 38.3814 240.05C38.3814 239.042 38.5974 238.154 39.0294 237.386C39.4734 236.606 40.0734 236.012 40.8294 235.604C41.5854 235.184 42.4314 234.974 43.3674 234.974C44.3034 234.974 45.1494 235.184 45.9054 235.604C46.6614 236.012 47.2554 236.6 47.6874 237.368C48.1314 238.136 48.3534 239.03 48.3534 240.05C48.3534 241.07 48.1254 241.97 47.6694 242.75C47.2254 243.518 46.6194 244.112 45.8514 244.532C45.0834 244.952 44.2314 245.162 43.2954 245.162ZM43.2954 243.722C43.8834 243.722 44.4354 243.584 44.9514 243.308C45.4674 243.032 45.8814 242.618 46.1934 242.066C46.5174 241.514 46.6794 240.842 46.6794 240.05C46.6794 239.258 46.5234 238.586 46.2114 238.034C45.8994 237.482 45.4914 237.074 44.9874 236.81C44.4834 236.534 43.9374 236.396 43.3494 236.396C42.7494 236.396 42.1974 236.534 41.6934 236.81C41.2014 237.074 40.8054 237.482 40.5054 238.034C40.2054 238.586 40.0554 239.258 40.0554 240.05C40.0554 240.854 40.1994 241.532 40.4874 242.084C40.7874 242.636 41.1834 243.05 41.6754 243.326C42.1674 243.59 42.7074 243.722 43.2954 243.722ZM52.1451 236.954C52.4691 236.39 52.9491 235.922 53.5851 235.55C54.2331 235.166 54.9831 234.974 55.8351 234.974C56.7111 234.974 57.5031 235.184 58.2111 235.604C58.9311 236.024 59.4951 236.618 59.9031 237.386C60.3111 238.142 60.5151 239.024 60.5151 240.032C60.5151 241.028 60.3111 241.916 59.9031 242.696C59.4951 243.476 58.9311 244.082 58.2111 244.514C57.5031 244.946 56.7111 245.162 55.8351 245.162C54.9951 245.162 54.2511 244.976 53.6031 244.604C52.9671 244.22 52.4811 243.746 52.1451 243.182V249.68H50.5071V235.136H52.1451V236.954ZM58.8411 240.032C58.8411 239.288 58.6911 238.64 58.3911 238.088C58.0911 237.536 57.6831 237.116 57.1671 236.828C56.6631 236.54 56.1051 236.396 55.4931 236.396C54.8931 236.396 54.3351 236.546 53.8191 236.846C53.3151 237.134 52.9071 237.56 52.5951 238.124C52.2951 238.676 52.1451 239.318 52.1451 240.05C52.1451 240.794 52.2951 241.448 52.5951 242.012C52.9071 242.564 53.3151 242.99 53.8191 243.29C54.3351 243.578 54.8931 243.722 55.4931 243.722C56.1051 243.722 56.6631 243.578 57.1671 243.29C57.6831 242.99 58.0911 242.564 58.3911 242.012C58.6911 241.448 58.8411 240.788 58.8411 240.032ZM66.1632 245.162C65.4072 245.162 64.7292 245.036 64.1292 244.784C63.5292 244.52 63.0552 244.16 62.7072 243.704C62.3592 243.236 62.1672 242.702 62.1312 242.102H63.8232C63.8712 242.594 64.0992 242.996 64.5072 243.308C64.9272 243.62 65.4732 243.776 66.1452 243.776C66.7692 243.776 67.2612 243.638 67.6212 243.362C67.9812 243.086 68.1612 242.738 68.1612 242.318C68.1612 241.886 67.9692 241.568 67.5852 241.364C67.2012 241.148 66.6072 240.938 65.8032 240.734C65.0712 240.542 64.4712 240.35 64.0032 240.158C63.5472 239.954 63.1512 239.66 62.8152 239.276C62.4912 238.88 62.3292 238.364 62.3292 237.728C62.3292 237.224 62.4792 236.762 62.7792 236.342C63.0792 235.922 63.5052 235.592 64.0572 235.352C64.6092 235.1 65.2392 234.974 65.9472 234.974C67.0392 234.974 67.9212 235.25 68.5932 235.802C69.2652 236.354 69.6252 237.11 69.6732 238.07H68.0352C67.9992 237.554 67.7892 237.14 67.4052 236.828C67.0332 236.516 66.5292 236.36 65.8932 236.36C65.3052 236.36 64.8372 236.486 64.4892 236.738C64.1412 236.99 63.9672 237.32 63.9672 237.728C63.9672 238.052 64.0692 238.322 64.2732 238.538C64.4892 238.742 64.7532 238.91 65.0652 239.042C65.3892 239.162 65.8332 239.3 66.3972 239.456C67.1052 239.648 67.6812 239.84 68.1252 240.032C68.5692 240.212 68.9472 240.488 69.2592 240.86C69.5832 241.232 69.7512 241.718 69.7632 242.318C69.7632 242.858 69.6132 243.344 69.3132 243.776C69.0132 244.208 68.5872 244.55 68.0352 244.802C67.4952 245.042 66.8712 245.162 66.1632 245.162ZM73.7675 242.732L71.7515 247.574H70.6535L71.9675 242.732H73.7675ZM79.8306 240.05C79.8306 239.03 80.0346 238.142 80.4426 237.386C80.8506 236.618 81.4146 236.024 82.1346 235.604C82.8666 235.184 83.7006 234.974 84.6366 234.974C85.8486 234.974 86.8446 235.268 87.6246 235.856C88.4166 236.444 88.9386 237.26 89.1906 238.304H87.4266C87.2586 237.704 86.9286 237.23 86.4366 236.882C85.9566 236.534 85.3566 236.36 84.6366 236.36C83.7006 236.36 82.9446 236.684 82.3686 237.332C81.7926 237.968 81.5046 238.874 81.5046 240.05C81.5046 241.238 81.7926 242.156 82.3686 242.804C82.9446 243.452 83.7006 243.776 84.6366 243.776C85.3566 243.776 85.9566 243.608 86.4366 243.272C86.9166 242.936 87.2466 242.456 87.4266 241.832H89.1906C88.9266 242.84 88.3986 243.65 87.6066 244.262C86.8146 244.862 85.8246 245.162 84.6366 245.162C83.7006 245.162 82.8666 244.952 82.1346 244.532C81.4146 244.112 80.8506 243.518 80.4426 242.75C80.0346 241.982 79.8306 241.082 79.8306 240.05ZM95.6782 245.162C94.7542 245.162 93.9142 244.952 93.1582 244.532C92.4142 244.112 91.8262 243.518 91.3942 242.75C90.9742 241.97 90.7642 241.07 90.7642 240.05C90.7642 239.042 90.9802 238.154 91.4122 237.386C91.8562 236.606 92.4562 236.012 93.2122 235.604C93.9682 235.184 94.8142 234.974 95.7502 234.974C96.6862 234.974 97.5322 235.184 98.2882 235.604C99.0442 236.012 99.6382 236.6 100.07 237.368C100.514 238.136 100.736 239.03 100.736 240.05C100.736 241.07 100.508 241.97 100.052 242.75C99.6082 243.518 99.0022 244.112 98.2342 244.532C97.4662 244.952 96.6142 245.162 95.6782 245.162ZM95.6782 243.722C96.2662 243.722 96.8182 243.584 97.3342 243.308C97.8502 243.032 98.2642 242.618 98.5762 242.066C98.9002 241.514 99.0622 240.842 99.0622 240.05C99.0622 239.258 98.9062 238.586 98.5942 238.034C98.2822 237.482 97.8742 237.074 97.3702 236.81C96.8662 236.534 96.3202 236.396 95.7322 236.396C95.1322 236.396 94.5802 236.534 94.0762 236.81C93.5842 237.074 93.1882 237.482 92.8882 238.034C92.5882 238.586 92.4382 239.258 92.4382 240.05C92.4382 240.854 92.5822 241.532 92.8702 242.084C93.1702 242.636 93.5662 243.05 94.0582 243.326C94.5502 243.59 95.0902 243.722 95.6782 243.722ZM111.638 235.136V245H110V243.542C109.688 244.046 109.25 244.442 108.686 244.73C108.134 245.006 107.522 245.144 106.85 245.144C106.082 245.144 105.392 244.988 104.78 244.676C104.168 244.352 103.682 243.872 103.322 243.236C102.974 242.6 102.8 241.826 102.8 240.914V235.136H104.42V240.698C104.42 241.67 104.666 242.42 105.158 242.948C105.65 243.464 106.322 243.722 107.174 243.722C108.05 243.722 108.74 243.452 109.244 242.912C109.748 242.372 110 241.586 110 240.554V235.136H111.638ZM116.042 231.68V245H114.404V231.68H116.042ZM118.221 240.032C118.221 239.024 118.425 238.142 118.833 237.386C119.241 236.618 119.799 236.024 120.507 235.604C121.227 235.184 122.031 234.974 122.919 234.974C123.687 234.974 124.401 235.154 125.061 235.514C125.721 235.862 126.225 236.324 126.573 236.9V231.68H128.229V245H126.573V243.146C126.249 243.734 125.769 244.22 125.133 244.604C124.497 244.976 123.753 245.162 122.901 245.162C122.025 245.162 121.227 244.946 120.507 244.514C119.799 244.082 119.241 243.476 118.833 242.696C118.425 241.916 118.221 241.028 118.221 240.032ZM126.573 240.05C126.573 239.306 126.423 238.658 126.123 238.106C125.823 237.554 125.415 237.134 124.899 236.846C124.395 236.546 123.837 236.396 123.225 236.396C122.613 236.396 122.055 236.54 121.551 236.828C121.047 237.116 120.645 237.536 120.345 238.088C120.045 238.64 119.895 239.288 119.895 240.032C119.895 240.788 120.045 241.448 120.345 242.012C120.645 242.564 121.047 242.99 121.551 243.29C122.055 243.578 122.613 243.722 123.225 243.722C123.837 243.722 124.395 243.578 124.899 243.29C125.415 242.99 125.823 242.564 126.123 242.012C126.423 241.448 126.573 240.794 126.573 240.05ZM135.803 234.956C137.003 234.956 137.975 235.322 138.719 236.054C139.463 236.774 139.835 237.818 139.835 239.186V245H138.215V239.42C138.215 238.436 137.969 237.686 137.477 237.17C136.985 236.642 136.313 236.378 135.461 236.378C134.597 236.378 133.907 236.648 133.391 237.188C132.887 237.728 132.635 238.514 132.635 239.546V245H130.997V235.136H132.635V236.54C132.959 236.036 133.397 235.646 133.949 235.37C134.513 235.094 135.131 234.956 135.803 234.956ZM142.763 232.454H144.581L142.853 236.54H141.701L142.763 232.454ZM148.447 236.486V242.3C148.447 242.78 148.549 243.122 148.753 243.326C148.957 243.518 149.311 243.614 149.814 243.614H151.021V245H149.545C148.633 245 147.949 244.79 147.493 244.37C147.037 243.95 146.809 243.26 146.809 242.3V236.486H145.531V235.136H146.809V232.652H148.447V235.136H151.021V236.486H148.447ZM157.192 240.05C157.192 239.03 157.396 238.142 157.804 237.386C158.212 236.618 158.776 236.024 159.496 235.604C160.228 235.184 161.062 234.974 161.998 234.974C163.21 234.974 164.206 235.268 164.986 235.856C165.778 236.444 166.3 237.26 166.552 238.304H164.788C164.62 237.704 164.29 237.23 163.798 236.882C163.318 236.534 162.718 236.36 161.998 236.36C161.062 236.36 160.306 236.684 159.73 237.332C159.154 237.968 158.866 238.874 158.866 240.05C158.866 241.238 159.154 242.156 159.73 242.804C160.306 243.452 161.062 243.776 161.998 243.776C162.718 243.776 163.318 243.608 163.798 243.272C164.278 242.936 164.608 242.456 164.788 241.832H166.552C166.288 242.84 165.76 243.65 164.968 244.262C164.176 244.862 163.186 245.162 161.998 245.162C161.062 245.162 160.228 244.952 159.496 244.532C158.776 244.112 158.212 243.518 157.804 242.75C157.396 241.982 157.192 241.082 157.192 240.05ZM168.126 240.032C168.126 239.024 168.33 238.142 168.738 237.386C169.146 236.618 169.704 236.024 170.412 235.604C171.132 235.184 171.93 234.974 172.806 234.974C173.67 234.974 174.42 235.16 175.056 235.532C175.692 235.904 176.166 236.372 176.478 236.936V235.136H178.134V245H176.478V243.164C176.154 243.74 175.668 244.22 175.02 244.604C174.384 244.976 173.64 245.162 172.788 245.162C171.912 245.162 171.12 244.946 170.412 244.514C169.704 244.082 169.146 243.476 168.738 242.696C168.33 241.916 168.126 241.028 168.126 240.032ZM176.478 240.05C176.478 239.306 176.328 238.658 176.028 238.106C175.728 237.554 175.32 237.134 174.804 236.846C174.3 236.546 173.742 236.396 173.13 236.396C172.518 236.396 171.96 236.54 171.456 236.828C170.952 237.116 170.55 237.536 170.25 238.088C169.95 238.64 169.8 239.288 169.8 240.032C169.8 240.788 169.95 241.448 170.25 242.012C170.55 242.564 170.952 242.99 171.456 243.29C171.96 243.578 172.518 243.722 173.13 243.722C173.742 243.722 174.3 243.578 174.804 243.29C175.32 242.99 175.728 242.564 176.028 242.012C176.328 241.448 176.478 240.794 176.478 240.05ZM182.54 236.954C182.864 236.39 183.344 235.922 183.98 235.55C184.628 235.166 185.378 234.974 186.23 234.974C187.106 234.974 187.898 235.184 188.606 235.604C189.326 236.024 189.89 236.618 190.298 237.386C190.706 238.142 190.91 239.024 190.91 240.032C190.91 241.028 190.706 241.916 190.298 242.696C189.89 243.476 189.326 244.082 188.606 244.514C187.898 244.946 187.106 245.162 186.23 245.162C185.39 245.162 184.646 244.976 183.998 244.604C183.362 244.22 182.876 243.746 182.54 243.182V249.68H180.902V235.136H182.54V236.954ZM189.236 240.032C189.236 239.288 189.086 238.64 188.786 238.088C188.486 237.536 188.078 237.116 187.562 236.828C187.058 236.54 186.5 236.396 185.888 236.396C185.288 236.396 184.73 236.546 184.214 236.846C183.71 237.134 183.302 237.56 182.99 238.124C182.69 238.676 182.54 239.318 182.54 240.05C182.54 240.794 182.69 241.448 182.99 242.012C183.302 242.564 183.71 242.99 184.214 243.29C184.73 243.578 185.288 243.722 185.888 243.722C186.5 243.722 187.058 243.578 187.562 243.29C188.078 242.99 188.486 242.564 188.786 242.012C189.086 241.448 189.236 240.788 189.236 240.032ZM195.064 236.486V242.3C195.064 242.78 195.166 243.122 195.37 243.326C195.574 243.518 195.928 243.614 196.432 243.614H197.638V245H196.162C195.25 245 194.566 244.79 194.11 244.37C193.654 243.95 193.426 243.26 193.426 242.3V236.486H192.148V235.136H193.426V232.652H195.064V235.136H197.638V236.486H195.064ZM208.37 235.136V245H206.732V243.542C206.42 244.046 205.982 244.442 205.418 244.73C204.866 245.006 204.254 245.144 203.582 245.144C202.814 245.144 202.124 244.988 201.512 244.676C200.9 244.352 200.414 243.872 200.054 243.236C199.706 242.6 199.532 241.826 199.532 240.914V235.136H201.152V240.698C201.152 241.67 201.398 242.42 201.89 242.948C202.382 243.464 203.054 243.722 203.906 243.722C204.782 243.722 205.472 243.452 205.976 242.912C206.48 242.372 206.732 241.586 206.732 240.554V235.136H208.37ZM212.774 236.738C213.062 236.174 213.47 235.736 213.998 235.424C214.538 235.112 215.192 234.956 215.96 234.956V236.648H215.528C213.692 236.648 212.774 237.644 212.774 239.636V245H211.136V235.136H212.774V236.738ZM226.851 239.69C226.851 240.002 226.833 240.332 226.797 240.68H218.913C218.973 241.652 219.303 242.414 219.903 242.966C220.515 243.506 221.253 243.776 222.117 243.776C222.825 243.776 223.413 243.614 223.881 243.29C224.361 242.954 224.697 242.51 224.889 241.958H226.653C226.389 242.906 225.861 243.68 225.069 244.28C224.277 244.868 223.293 245.162 222.117 245.162C221.181 245.162 220.341 244.952 219.597 244.532C218.865 244.112 218.289 243.518 217.869 242.75C217.449 241.97 217.239 241.07 217.239 240.05C217.239 239.03 217.443 238.136 217.851 237.368C218.259 236.6 218.829 236.012 219.561 235.604C220.305 235.184 221.157 234.974 222.117 234.974C223.053 234.974 223.881 235.178 224.601 235.586C225.321 235.994 225.873 236.558 226.257 237.278C226.653 237.986 226.851 238.79 226.851 239.69ZM225.159 239.348C225.159 238.724 225.021 238.19 224.745 237.746C224.469 237.29 224.091 236.948 223.611 236.72C223.143 236.48 222.621 236.36 222.045 236.36C221.217 236.36 220.509 236.624 219.921 237.152C219.345 237.68 219.015 238.412 218.931 239.348H225.159ZM242.308 235.136L236.368 249.644H234.676L236.62 244.892L232.642 235.136H234.46L237.556 243.128L240.616 235.136H242.308ZM248.256 245.162C247.332 245.162 246.492 244.952 245.736 244.532C244.992 244.112 244.404 243.518 243.972 242.75C243.552 241.97 243.342 241.07 243.342 240.05C243.342 239.042 243.558 238.154 243.99 237.386C244.434 236.606 245.034 236.012 245.79 235.604C246.546 235.184 247.392 234.974 248.328 234.974C249.264 234.974 250.11 235.184 250.866 235.604C251.622 236.012 252.216 236.6 252.648 237.368C253.092 238.136 253.314 239.03 253.314 240.05C253.314 241.07 253.086 241.97 252.63 242.75C252.186 243.518 251.58 244.112 250.812 244.532C250.044 244.952 249.192 245.162 248.256 245.162ZM248.256 243.722C248.844 243.722 249.396 243.584 249.912 243.308C250.428 243.032 250.842 242.618 251.154 242.066C251.478 241.514 251.64 240.842 251.64 240.05C251.64 239.258 251.484 238.586 251.172 238.034C250.86 237.482 250.452 237.074 249.948 236.81C249.444 236.534 248.898 236.396 248.31 236.396C247.71 236.396 247.158 236.534 246.654 236.81C246.162 237.074 245.766 237.482 245.466 238.034C245.166 238.586 245.016 239.258 245.016 240.05C245.016 240.854 245.16 241.532 245.448 242.084C245.748 242.636 246.144 243.05 246.636 243.326C247.128 243.59 247.668 243.722 248.256 243.722ZM264.216 235.136V245H262.578V243.542C262.266 244.046 261.828 244.442 261.264 244.73C260.712 245.006 260.1 245.144 259.428 245.144C258.66 245.144 257.97 244.988 257.358 244.676C256.746 244.352 256.26 243.872 255.9 243.236C255.552 242.6 255.378 241.826 255.378 240.914V235.136H256.998V240.698C256.998 241.67 257.244 242.42 257.736 242.948C258.228 243.464 258.9 243.722 259.752 243.722C260.628 243.722 261.318 243.452 261.822 242.912C262.326 242.372 262.578 241.586 262.578 240.554V235.136H264.216ZM268.62 236.738C268.908 236.174 269.316 235.736 269.844 235.424C270.384 235.112 271.038 234.956 271.806 234.956V236.648H271.374C269.538 236.648 268.62 237.644 268.62 239.636V245H266.982V235.136H268.62V236.738ZM280.133 236.954C280.457 236.39 280.937 235.922 281.573 235.55C282.221 235.166 282.971 234.974 283.823 234.974C284.699 234.974 285.491 235.184 286.199 235.604C286.919 236.024 287.483 236.618 287.891 237.386C288.299 238.142 288.503 239.024 288.503 240.032C288.503 241.028 288.299 241.916 287.891 242.696C287.483 243.476 286.919 244.082 286.199 244.514C285.491 244.946 284.699 245.162 283.823 245.162C282.983 245.162 282.239 244.976 281.591 244.604C280.955 244.22 280.469 243.746 280.133 243.182V249.68H278.495V235.136H280.133V236.954ZM286.829 240.032C286.829 239.288 286.679 238.64 286.379 238.088C286.079 237.536 285.671 237.116 285.155 236.828C284.651 236.54 284.093 236.396 283.481 236.396C282.881 236.396 282.323 236.546 281.807 236.846C281.303 237.134 280.895 237.56 280.583 238.124C280.283 238.676 280.133 239.318 280.133 240.05C280.133 240.794 280.283 241.448 280.583 242.012C280.895 242.564 281.303 242.99 281.807 243.29C282.323 243.578 282.881 243.722 283.481 243.722C284.093 243.722 284.651 243.578 285.155 243.29C285.671 242.99 286.079 242.564 286.379 242.012C286.679 241.448 286.829 240.788 286.829 240.032ZM290.047 240.032C290.047 239.024 290.251 238.142 290.659 237.386C291.067 236.618 291.625 236.024 292.333 235.604C293.053 235.184 293.851 234.974 294.727 234.974C295.591 234.974 296.341 235.16 296.977 235.532C297.613 235.904 298.087 236.372 298.399 236.936V235.136H300.055V245H298.399V243.164C298.075 243.74 297.589 244.22 296.941 244.604C296.305 244.976 295.561 245.162 294.709 245.162C293.833 245.162 293.041 244.946 292.333 244.514C291.625 244.082 291.067 243.476 290.659 242.696C290.251 241.916 290.047 241.028 290.047 240.032ZM298.399 240.05C298.399 239.306 298.249 238.658 297.949 238.106C297.649 237.554 297.241 237.134 296.725 236.846C296.221 236.546 295.663 236.396 295.051 236.396C294.439 236.396 293.881 236.54 293.377 236.828C292.873 237.116 292.471 237.536 292.171 238.088C291.871 238.64 291.721 239.288 291.721 240.032C291.721 240.788 291.871 241.448 292.171 242.012C292.471 242.564 292.873 242.99 293.377 243.29C293.881 243.578 294.439 243.722 295.051 243.722C295.663 243.722 296.221 243.578 296.725 243.29C297.241 242.99 297.649 242.564 297.949 242.012C298.249 241.448 298.399 240.794 298.399 240.05ZM306.892 234.974C307.744 234.974 308.488 235.16 309.124 235.532C309.772 235.904 310.252 236.372 310.564 236.936V235.136H312.22V245.216C312.22 246.116 312.028 246.914 311.644 247.61C311.26 248.318 310.708 248.87 309.988 249.266C309.28 249.662 308.452 249.86 307.504 249.86C306.208 249.86 305.128 249.554 304.264 248.942C303.4 248.33 302.89 247.496 302.734 246.44H304.354C304.534 247.04 304.906 247.52 305.47 247.88C306.034 248.252 306.712 248.438 307.504 248.438C308.404 248.438 309.136 248.156 309.7 247.592C310.276 247.028 310.564 246.236 310.564 245.216V243.146C310.24 243.722 309.76 244.202 309.124 244.586C308.488 244.97 307.744 245.162 306.892 245.162C306.016 245.162 305.218 244.946 304.498 244.514C303.79 244.082 303.232 243.476 302.824 242.696C302.416 241.916 302.212 241.028 302.212 240.032C302.212 239.024 302.416 238.142 302.824 237.386C303.232 236.618 303.79 236.024 304.498 235.604C305.218 235.184 306.016 234.974 306.892 234.974ZM310.564 240.05C310.564 239.306 310.414 238.658 310.114 238.106C309.814 237.554 309.406 237.134 308.89 236.846C308.386 236.546 307.828 236.396 307.216 236.396C306.604 236.396 306.046 236.54 305.542 236.828C305.038 237.116 304.636 237.536 304.336 238.088C304.036 238.64 303.886 239.288 303.886 240.032C303.886 240.788 304.036 241.448 304.336 242.012C304.636 242.564 305.038 242.99 305.542 243.29C306.046 243.578 306.604 243.722 307.216 243.722C307.828 243.722 308.386 243.578 308.89 243.29C309.406 242.99 309.814 242.564 310.114 242.012C310.414 241.448 310.564 240.794 310.564 240.05ZM323.988 239.69C323.988 240.002 323.97 240.332 323.934 240.68H316.05C316.11 241.652 316.44 242.414 317.04 242.966C317.652 243.506 318.39 243.776 319.254 243.776C319.962 243.776 320.55 243.614 321.018 243.29C321.498 242.954 321.834 242.51 322.026 241.958H323.79C323.526 242.906 322.998 243.68 322.206 244.28C321.414 244.868 320.43 245.162 319.254 245.162C318.318 245.162 317.478 244.952 316.734 244.532C316.002 244.112 315.426 243.518 315.006 242.75C314.586 241.97 314.376 241.07 314.376 240.05C314.376 239.03 314.58 238.136 314.988 237.368C315.396 236.6 315.966 236.012 316.698 235.604C317.442 235.184 318.294 234.974 319.254 234.974C320.19 234.974 321.018 235.178 321.738 235.586C322.458 235.994 323.01 236.558 323.394 237.278C323.79 237.986 323.988 238.79 323.988 239.69ZM322.296 239.348C322.296 238.724 322.158 238.19 321.882 237.746C321.606 237.29 321.228 236.948 320.748 236.72C320.28 236.48 319.758 236.36 319.182 236.36C318.354 236.36 317.646 236.624 317.058 237.152C316.482 237.68 316.152 238.412 316.068 239.348H322.296ZM326.672 245.108C326.36 245.108 326.096 245 325.88 244.784C325.664 244.568 325.556 244.304 325.556 243.992C325.556 243.68 325.664 243.416 325.88 243.2C326.096 242.984 326.36 242.876 326.672 242.876C326.972 242.876 327.224 242.984 327.428 243.2C327.644 243.416 327.752 243.68 327.752 243.992C327.752 244.304 327.644 244.568 327.428 244.784C327.224 245 326.972 245.108 326.672 245.108ZM51.6265 263.954C51.9505 263.39 52.4305 262.922 53.0665 262.55C53.7145 262.166 54.4645 261.974 55.3165 261.974C56.1925 261.974 56.9845 262.184 57.6925 262.604C58.4125 263.024 58.9765 263.618 59.3845 264.386C59.7925 265.142 59.9965 266.024 59.9965 267.032C59.9965 268.028 59.7925 268.916 59.3845 269.696C58.9765 270.476 58.4125 271.082 57.6925 271.514C56.9845 271.946 56.1925 272.162 55.3165 272.162C54.4765 272.162 53.7325 271.976 53.0845 271.604C52.4485 271.22 51.9625 270.746 51.6265 270.182V276.68H49.9885V262.136H51.6265V263.954ZM58.3225 267.032C58.3225 266.288 58.1725 265.64 57.8725 265.088C57.5725 264.536 57.1645 264.116 56.6485 263.828C56.1445 263.54 55.5865 263.396 54.9745 263.396C54.3745 263.396 53.8165 263.546 53.3005 263.846C52.7965 264.134 52.3885 264.56 52.0765 265.124C51.7765 265.676 51.6265 266.318 51.6265 267.05C51.6265 267.794 51.7765 268.448 52.0765 269.012C52.3885 269.564 52.7965 269.99 53.3005 270.29C53.8165 270.578 54.3745 270.722 54.9745 270.722C55.5865 270.722 56.1445 270.578 56.6485 270.29C57.1645 269.99 57.5725 269.564 57.8725 269.012C58.1725 268.448 58.3225 267.788 58.3225 267.032ZM63.7906 258.68V272H62.1526V258.68H63.7906ZM75.5823 266.69C75.5823 267.002 75.5643 267.332 75.5283 267.68H67.6443C67.7043 268.652 68.0343 269.414 68.6343 269.966C69.2463 270.506 69.9843 270.776 70.8483 270.776C71.5563 270.776 72.1443 270.614 72.6123 270.29C73.0923 269.954 73.4283 269.51 73.6203 268.958H75.3843C75.1203 269.906 74.5923 270.68 73.8003 271.28C73.0083 271.868 72.0243 272.162 70.8483 272.162C69.9123 272.162 69.0723 271.952 68.3283 271.532C67.5963 271.112 67.0203 270.518 66.6003 269.75C66.1803 268.97 65.9703 268.07 65.9703 267.05C65.9703 266.03 66.1743 265.136 66.5823 264.368C66.9903 263.6 67.5603 263.012 68.2923 262.604C69.0363 262.184 69.8883 261.974 70.8483 261.974C71.7843 261.974 72.6123 262.178 73.3323 262.586C74.0523 262.994 74.6043 263.558 74.9883 264.278C75.3843 264.986 75.5823 265.79 75.5823 266.69ZM73.8903 266.348C73.8903 265.724 73.7523 265.19 73.4763 264.746C73.2003 264.29 72.8223 263.948 72.3423 263.72C71.8743 263.48 71.3523 263.36 70.7763 263.36C69.9483 263.36 69.2403 263.624 68.6523 264.152C68.0763 264.68 67.7463 265.412 67.6623 266.348H73.8903ZM77.1324 267.032C77.1324 266.024 77.3364 265.142 77.7444 264.386C78.1524 263.618 78.7104 263.024 79.4184 262.604C80.1384 262.184 80.9364 261.974 81.8124 261.974C82.6764 261.974 83.4264 262.16 84.0624 262.532C84.6984 262.904 85.1724 263.372 85.4844 263.936V262.136H87.1404V272H85.4844V270.164C85.1604 270.74 84.6744 271.22 84.0264 271.604C83.3904 271.976 82.6464 272.162 81.7944 272.162C80.9184 272.162 80.1264 271.946 79.4184 271.514C78.7104 271.082 78.1524 270.476 77.7444 269.696C77.3364 268.916 77.1324 268.028 77.1324 267.032ZM85.4844 267.05C85.4844 266.306 85.3344 265.658 85.0344 265.106C84.7344 264.554 84.3264 264.134 83.8104 263.846C83.3064 263.546 82.7484 263.396 82.1364 263.396C81.5244 263.396 80.9664 263.54 80.4624 263.828C79.9584 264.116 79.5564 264.536 79.2564 265.088C78.9564 265.64 78.8064 266.288 78.8064 267.032C78.8064 267.788 78.9564 268.448 79.2564 269.012C79.5564 269.564 79.9584 269.99 80.4624 270.29C80.9664 270.578 81.5244 270.722 82.1364 270.722C82.7484 270.722 83.3064 270.578 83.8104 270.29C84.3264 269.99 84.7344 269.564 85.0344 269.012C85.3344 268.448 85.4844 267.794 85.4844 267.05ZM93.4005 272.162C92.6445 272.162 91.9665 272.036 91.3665 271.784C90.7665 271.52 90.2925 271.16 89.9445 270.704C89.5965 270.236 89.4045 269.702 89.3685 269.102H91.0605C91.1085 269.594 91.3365 269.996 91.7445 270.308C92.1645 270.62 92.7105 270.776 93.3825 270.776C94.0065 270.776 94.4985 270.638 94.8585 270.362C95.2185 270.086 95.3985 269.738 95.3985 269.318C95.3985 268.886 95.2065 268.568 94.8225 268.364C94.4385 268.148 93.8445 267.938 93.0405 267.734C92.3085 267.542 91.7085 267.35 91.2405 267.158C90.7845 266.954 90.3885 266.66 90.0525 266.276C89.7285 265.88 89.5665 265.364 89.5665 264.728C89.5665 264.224 89.7165 263.762 90.0165 263.342C90.3165 262.922 90.7425 262.592 91.2945 262.352C91.8465 262.1 92.4765 261.974 93.1845 261.974C94.2765 261.974 95.1585 262.25 95.8305 262.802C96.5025 263.354 96.8625 264.11 96.9105 265.07H95.2725C95.2365 264.554 95.0265 264.14 94.6425 263.828C94.2705 263.516 93.7665 263.36 93.1305 263.36C92.5425 263.36 92.0745 263.486 91.7265 263.738C91.3785 263.99 91.2045 264.32 91.2045 264.728C91.2045 265.052 91.3065 265.322 91.5105 265.538C91.7265 265.742 91.9905 265.91 92.3025 266.042C92.6265 266.162 93.0705 266.3 93.6345 266.456C94.3425 266.648 94.9185 266.84 95.3625 267.032C95.8065 267.212 96.1845 267.488 96.4965 267.86C96.8205 268.232 96.9885 268.718 97.0005 269.318C97.0005 269.858 96.8505 270.344 96.5505 270.776C96.2505 271.208 95.8245 271.55 95.2725 271.802C94.7325 272.042 94.1085 272.162 93.4005 272.162ZM108.313 266.69C108.313 267.002 108.295 267.332 108.259 267.68H100.375C100.435 268.652 100.765 269.414 101.365 269.966C101.977 270.506 102.715 270.776 103.579 270.776C104.287 270.776 104.875 270.614 105.343 270.29C105.823 269.954 106.159 269.51 106.351 268.958H108.115C107.851 269.906 107.323 270.68 106.531 271.28C105.739 271.868 104.755 272.162 103.579 272.162C102.643 272.162 101.803 271.952 101.059 271.532C100.327 271.112 99.7508 270.518 99.3308 269.75C98.9108 268.97 98.7008 268.07 98.7008 267.05C98.7008 266.03 98.9048 265.136 99.3128 264.368C99.7208 263.6 100.291 263.012 101.023 262.604C101.767 262.184 102.619 261.974 103.579 261.974C104.515 261.974 105.343 262.178 106.063 262.586C106.783 262.994 107.335 263.558 107.719 264.278C108.115 264.986 108.313 265.79 108.313 266.69ZM106.621 266.348C106.621 265.724 106.483 265.19 106.207 264.746C105.931 264.29 105.553 263.948 105.073 263.72C104.605 263.48 104.083 263.36 103.507 263.36C102.679 263.36 101.971 263.624 101.383 264.152C100.807 264.68 100.477 265.412 100.393 266.348H106.621ZM116.912 263.738C117.2 263.174 117.608 262.736 118.136 262.424C118.676 262.112 119.33 261.956 120.098 261.956V263.648H119.666C117.83 263.648 116.912 264.644 116.912 266.636V272H115.274V262.136H116.912V263.738ZM130.989 266.69C130.989 267.002 130.971 267.332 130.935 267.68H123.051C123.111 268.652 123.441 269.414 124.041 269.966C124.653 270.506 125.391 270.776 126.255 270.776C126.963 270.776 127.551 270.614 128.019 270.29C128.499 269.954 128.835 269.51 129.027 268.958H130.791C130.527 269.906 129.999 270.68 129.207 271.28C128.415 271.868 127.431 272.162 126.255 272.162C125.319 272.162 124.479 271.952 123.735 271.532C123.003 271.112 122.427 270.518 122.007 269.75C121.587 268.97 121.377 268.07 121.377 267.05C121.377 266.03 121.581 265.136 121.989 264.368C122.397 263.6 122.967 263.012 123.699 262.604C124.443 262.184 125.295 261.974 126.255 261.974C127.191 261.974 128.019 262.178 128.739 262.586C129.459 262.994 130.011 263.558 130.395 264.278C130.791 264.986 130.989 265.79 130.989 266.69ZM129.297 266.348C129.297 265.724 129.159 265.19 128.883 264.746C128.607 264.29 128.229 263.948 127.749 263.72C127.281 263.48 126.759 263.36 126.183 263.36C125.355 263.36 124.647 263.624 124.059 264.152C123.483 264.68 123.153 265.412 123.069 266.348H129.297ZM136.643 272.162C135.887 272.162 135.209 272.036 134.609 271.784C134.009 271.52 133.535 271.16 133.187 270.704C132.839 270.236 132.647 269.702 132.611 269.102H134.303C134.351 269.594 134.579 269.996 134.987 270.308C135.407 270.62 135.953 270.776 136.625 270.776C137.249 270.776 137.741 270.638 138.101 270.362C138.461 270.086 138.641 269.738 138.641 269.318C138.641 268.886 138.449 268.568 138.065 268.364C137.681 268.148 137.087 267.938 136.283 267.734C135.551 267.542 134.951 267.35 134.483 267.158C134.027 266.954 133.631 266.66 133.295 266.276C132.971 265.88 132.809 265.364 132.809 264.728C132.809 264.224 132.959 263.762 133.259 263.342C133.559 262.922 133.985 262.592 134.537 262.352C135.089 262.1 135.719 261.974 136.427 261.974C137.519 261.974 138.401 262.25 139.073 262.802C139.745 263.354 140.105 264.11 140.153 265.07H138.515C138.479 264.554 138.269 264.14 137.885 263.828C137.513 263.516 137.009 263.36 136.373 263.36C135.785 263.36 135.317 263.486 134.969 263.738C134.621 263.99 134.447 264.32 134.447 264.728C134.447 265.052 134.549 265.322 134.753 265.538C134.969 265.742 135.233 265.91 135.545 266.042C135.869 266.162 136.313 266.3 136.877 266.456C137.585 266.648 138.161 266.84 138.605 267.032C139.049 267.212 139.427 267.488 139.739 267.86C140.063 268.232 140.231 268.718 140.243 269.318C140.243 269.858 140.093 270.344 139.793 270.776C139.493 271.208 139.067 271.55 138.515 271.802C137.975 272.042 137.351 272.162 136.643 272.162ZM141.943 267.05C141.943 266.03 142.147 265.142 142.555 264.386C142.963 263.618 143.527 263.024 144.247 262.604C144.979 262.184 145.813 261.974 146.749 261.974C147.961 261.974 148.957 262.268 149.737 262.856C150.529 263.444 151.051 264.26 151.303 265.304H149.539C149.371 264.704 149.041 264.23 148.549 263.882C148.069 263.534 147.469 263.36 146.749 263.36C145.813 263.36 145.057 263.684 144.481 264.332C143.905 264.968 143.617 265.874 143.617 267.05C143.617 268.238 143.905 269.156 144.481 269.804C145.057 270.452 145.813 270.776 146.749 270.776C147.469 270.776 148.069 270.608 148.549 270.272C149.029 269.936 149.359 269.456 149.539 268.832H151.303C151.039 269.84 150.511 270.65 149.719 271.262C148.927 271.862 147.937 272.162 146.749 272.162C145.813 272.162 144.979 271.952 144.247 271.532C143.527 271.112 142.963 270.518 142.555 269.75C142.147 268.982 141.943 268.082 141.943 267.05ZM152.877 267.032C152.877 266.024 153.081 265.142 153.489 264.386C153.897 263.618 154.455 263.024 155.163 262.604C155.883 262.184 156.681 261.974 157.557 261.974C158.421 261.974 159.171 262.16 159.807 262.532C160.443 262.904 160.917 263.372 161.229 263.936V262.136H162.885V272H161.229V270.164C160.905 270.74 160.419 271.22 159.771 271.604C159.135 271.976 158.391 272.162 157.539 272.162C156.663 272.162 155.871 271.946 155.163 271.514C154.455 271.082 153.897 270.476 153.489 269.696C153.081 268.916 152.877 268.028 152.877 267.032ZM161.229 267.05C161.229 266.306 161.079 265.658 160.779 265.106C160.479 264.554 160.071 264.134 159.555 263.846C159.051 263.546 158.493 263.396 157.881 263.396C157.269 263.396 156.711 263.54 156.207 263.828C155.703 264.116 155.301 264.536 155.001 265.088C154.701 265.64 154.551 266.288 154.551 267.032C154.551 267.788 154.701 268.448 155.001 269.012C155.301 269.564 155.703 269.99 156.207 270.29C156.711 270.578 157.269 270.722 157.881 270.722C158.493 270.722 159.051 270.578 159.555 270.29C160.071 269.99 160.479 269.564 160.779 269.012C161.079 268.448 161.229 267.794 161.229 267.05ZM170.459 261.956C171.659 261.956 172.631 262.322 173.375 263.054C174.119 263.774 174.491 264.818 174.491 266.186V272H172.871V266.42C172.871 265.436 172.625 264.686 172.133 264.17C171.641 263.642 170.969 263.378 170.117 263.378C169.253 263.378 168.563 263.648 168.047 264.188C167.543 264.728 167.291 265.514 167.291 266.546V272H165.653V262.136H167.291V263.54C167.615 263.036 168.053 262.646 168.605 262.37C169.169 262.094 169.787 261.956 170.459 261.956ZM183.963 263.486V269.3C183.963 269.78 184.065 270.122 184.269 270.326C184.473 270.518 184.827 270.614 185.331 270.614H186.537V272H185.061C184.149 272 183.465 271.79 183.009 271.37C182.553 270.95 182.325 270.26 182.325 269.3V263.486H181.047V262.136H182.325V259.652H183.963V262.136H186.537V263.486H183.963ZM193.418 261.956C194.162 261.956 194.834 262.118 195.434 262.442C196.034 262.754 196.502 263.228 196.838 263.864C197.186 264.5 197.36 265.274 197.36 266.186V272H195.74V266.42C195.74 265.436 195.494 264.686 195.002 264.17C194.51 263.642 193.838 263.378 192.986 263.378C192.122 263.378 191.432 263.648 190.916 264.188C190.412 264.728 190.16 265.514 190.16 266.546V272H188.522V258.68H190.16V263.54C190.484 263.036 190.928 262.646 191.492 262.37C192.068 262.094 192.71 261.956 193.418 261.956ZM209.035 266.69C209.035 267.002 209.017 267.332 208.981 267.68H201.097C201.157 268.652 201.487 269.414 202.087 269.966C202.699 270.506 203.437 270.776 204.301 270.776C205.009 270.776 205.597 270.614 206.065 270.29C206.545 269.954 206.881 269.51 207.073 268.958H208.837C208.573 269.906 208.045 270.68 207.253 271.28C206.461 271.868 205.477 272.162 204.301 272.162C203.365 272.162 202.525 271.952 201.781 271.532C201.049 271.112 200.473 270.518 200.053 269.75C199.633 268.97 199.423 268.07 199.423 267.05C199.423 266.03 199.627 265.136 200.035 264.368C200.443 263.6 201.013 263.012 201.745 262.604C202.489 262.184 203.341 261.974 204.301 261.974C205.237 261.974 206.065 262.178 206.785 262.586C207.505 262.994 208.057 263.558 208.441 264.278C208.837 264.986 209.035 265.79 209.035 266.69ZM207.343 266.348C207.343 265.724 207.205 265.19 206.929 264.746C206.653 264.29 206.275 263.948 205.795 263.72C205.327 263.48 204.805 263.36 204.229 263.36C203.401 263.36 202.693 263.624 202.105 264.152C201.529 264.68 201.199 265.412 201.115 266.348H207.343ZM217.634 258.68V272H215.996V258.68H217.634ZM219.814 267.032C219.814 266.024 220.018 265.142 220.426 264.386C220.834 263.618 221.392 263.024 222.1 262.604C222.82 262.184 223.618 261.974 224.494 261.974C225.358 261.974 226.108 262.16 226.744 262.532C227.38 262.904 227.854 263.372 228.166 263.936V262.136H229.822V272H228.166V270.164C227.842 270.74 227.356 271.22 226.708 271.604C226.072 271.976 225.328 272.162 224.476 272.162C223.6 272.162 222.808 271.946 222.1 271.514C221.392 271.082 220.834 270.476 220.426 269.696C220.018 268.916 219.814 268.028 219.814 267.032ZM228.166 267.05C228.166 266.306 228.016 265.658 227.716 265.106C227.416 264.554 227.008 264.134 226.492 263.846C225.988 263.546 225.43 263.396 224.818 263.396C224.206 263.396 223.648 263.54 223.144 263.828C222.64 264.116 222.238 264.536 221.938 265.088C221.638 265.64 221.488 266.288 221.488 267.032C221.488 267.788 221.638 268.448 221.938 269.012C222.238 269.564 222.64 269.99 223.144 270.29C223.648 270.578 224.206 270.722 224.818 270.722C225.43 270.722 225.988 270.578 226.492 270.29C227.008 269.99 227.416 269.564 227.716 269.012C228.016 268.448 228.166 267.794 228.166 267.05ZM236.082 272.162C235.326 272.162 234.648 272.036 234.048 271.784C233.448 271.52 232.974 271.16 232.626 270.704C232.278 270.236 232.086 269.702 232.05 269.102H233.742C233.79 269.594 234.018 269.996 234.426 270.308C234.846 270.62 235.392 270.776 236.064 270.776C236.688 270.776 237.18 270.638 237.54 270.362C237.9 270.086 238.08 269.738 238.08 269.318C238.08 268.886 237.888 268.568 237.504 268.364C237.12 268.148 236.526 267.938 235.722 267.734C234.99 267.542 234.39 267.35 233.922 267.158C233.466 266.954 233.07 266.66 232.734 266.276C232.41 265.88 232.248 265.364 232.248 264.728C232.248 264.224 232.398 263.762 232.698 263.342C232.998 262.922 233.424 262.592 233.976 262.352C234.528 262.1 235.158 261.974 235.866 261.974C236.958 261.974 237.84 262.25 238.512 262.802C239.184 263.354 239.544 264.11 239.592 265.07H237.954C237.918 264.554 237.708 264.14 237.324 263.828C236.952 263.516 236.448 263.36 235.812 263.36C235.224 263.36 234.756 263.486 234.408 263.738C234.06 263.99 233.886 264.32 233.886 264.728C233.886 265.052 233.988 265.322 234.192 265.538C234.408 265.742 234.672 265.91 234.984 266.042C235.308 266.162 235.752 266.3 236.316 266.456C237.024 266.648 237.6 266.84 238.044 267.032C238.488 267.212 238.866 267.488 239.178 267.86C239.502 268.232 239.67 268.718 239.682 269.318C239.682 269.858 239.532 270.344 239.232 270.776C238.932 271.208 238.506 271.55 237.954 271.802C237.414 272.042 236.79 272.162 236.082 272.162ZM243.992 263.486V269.3C243.992 269.78 244.094 270.122 244.298 270.326C244.502 270.518 244.856 270.614 245.36 270.614H246.566V272H245.09C244.178 272 243.494 271.79 243.038 271.37C242.582 270.95 242.354 270.26 242.354 269.3V263.486H241.076V262.136H242.354V259.652H243.992V262.136H246.566V263.486H243.992ZM254.988 263.954C255.312 263.39 255.792 262.922 256.428 262.55C257.076 262.166 257.826 261.974 258.678 261.974C259.554 261.974 260.346 262.184 261.054 262.604C261.774 263.024 262.338 263.618 262.746 264.386C263.154 265.142 263.358 266.024 263.358 267.032C263.358 268.028 263.154 268.916 262.746 269.696C262.338 270.476 261.774 271.082 261.054 271.514C260.346 271.946 259.554 272.162 258.678 272.162C257.838 272.162 257.094 271.976 256.446 271.604C255.81 271.22 255.324 270.746 254.988 270.182V276.68H253.35V262.136H254.988V263.954ZM261.684 267.032C261.684 266.288 261.534 265.64 261.234 265.088C260.934 264.536 260.526 264.116 260.01 263.828C259.506 263.54 258.948 263.396 258.336 263.396C257.736 263.396 257.178 263.546 256.662 263.846C256.158 264.134 255.75 264.56 255.438 265.124C255.138 265.676 254.988 266.318 254.988 267.05C254.988 267.794 255.138 268.448 255.438 269.012C255.75 269.564 256.158 269.99 256.662 270.29C257.178 270.578 257.736 270.722 258.336 270.722C258.948 270.722 259.506 270.578 260.01 270.29C260.526 269.99 260.934 269.564 261.234 269.012C261.534 268.448 261.684 267.788 261.684 267.032ZM264.902 267.032C264.902 266.024 265.106 265.142 265.514 264.386C265.922 263.618 266.48 263.024 267.188 262.604C267.908 262.184 268.706 261.974 269.582 261.974C270.446 261.974 271.196 262.16 271.832 262.532C272.468 262.904 272.942 263.372 273.254 263.936V262.136H274.91V272H273.254V270.164C272.93 270.74 272.444 271.22 271.796 271.604C271.16 271.976 270.416 272.162 269.564 272.162C268.688 272.162 267.896 271.946 267.188 271.514C266.48 271.082 265.922 270.476 265.514 269.696C265.106 268.916 264.902 268.028 264.902 267.032ZM273.254 267.05C273.254 266.306 273.104 265.658 272.804 265.106C272.504 264.554 272.096 264.134 271.58 263.846C271.076 263.546 270.518 263.396 269.906 263.396C269.294 263.396 268.736 263.54 268.232 263.828C267.728 264.116 267.326 264.536 267.026 265.088C266.726 265.64 266.576 266.288 266.576 267.032C266.576 267.788 266.726 268.448 267.026 269.012C267.326 269.564 267.728 269.99 268.232 270.29C268.736 270.578 269.294 270.722 269.906 270.722C270.518 270.722 271.076 270.578 271.58 270.29C272.096 269.99 272.504 269.564 272.804 269.012C273.104 268.448 273.254 267.794 273.254 267.05ZM281.746 261.974C282.598 261.974 283.342 262.16 283.978 262.532C284.626 262.904 285.106 263.372 285.418 263.936V262.136H287.074V272.216C287.074 273.116 286.882 273.914 286.498 274.61C286.114 275.318 285.562 275.87 284.842 276.266C284.134 276.662 283.306 276.86 282.358 276.86C281.062 276.86 279.982 276.554 279.118 275.942C278.254 275.33 277.744 274.496 277.588 273.44H279.208C279.388 274.04 279.76 274.52 280.324 274.88C280.888 275.252 281.566 275.438 282.358 275.438C283.258 275.438 283.99 275.156 284.554 274.592C285.13 274.028 285.418 273.236 285.418 272.216V270.146C285.094 270.722 284.614 271.202 283.978 271.586C283.342 271.97 282.598 272.162 281.746 272.162C280.87 272.162 280.072 271.946 279.352 271.514C278.644 271.082 278.086 270.476 277.678 269.696C277.27 268.916 277.066 268.028 277.066 267.032C277.066 266.024 277.27 265.142 277.678 264.386C278.086 263.618 278.644 263.024 279.352 262.604C280.072 262.184 280.87 261.974 281.746 261.974ZM285.418 267.05C285.418 266.306 285.268 265.658 284.968 265.106C284.668 264.554 284.26 264.134 283.744 263.846C283.24 263.546 282.682 263.396 282.07 263.396C281.458 263.396 280.9 263.54 280.396 263.828C279.892 264.116 279.49 264.536 279.19 265.088C278.89 265.64 278.74 266.288 278.74 267.032C278.74 267.788 278.89 268.448 279.19 269.012C279.49 269.564 279.892 269.99 280.396 270.29C280.9 270.578 281.458 270.722 282.07 270.722C282.682 270.722 283.24 270.578 283.744 270.29C284.26 269.99 284.668 269.564 284.968 269.012C285.268 268.448 285.418 267.794 285.418 267.05ZM298.842 266.69C298.842 267.002 298.824 267.332 298.788 267.68H290.904C290.964 268.652 291.294 269.414 291.894 269.966C292.506 270.506 293.244 270.776 294.108 270.776C294.816 270.776 295.404 270.614 295.872 270.29C296.352 269.954 296.688 269.51 296.88 268.958H298.644C298.38 269.906 297.852 270.68 297.06 271.28C296.268 271.868 295.284 272.162 294.108 272.162C293.172 272.162 292.332 271.952 291.588 271.532C290.856 271.112 290.28 270.518 289.86 269.75C289.44 268.97 289.23 268.07 289.23 267.05C289.23 266.03 289.434 265.136 289.842 264.368C290.25 263.6 290.82 263.012 291.552 262.604C292.296 262.184 293.148 261.974 294.108 261.974C295.044 261.974 295.872 262.178 296.592 262.586C297.312 262.994 297.864 263.558 298.248 264.278C298.644 264.986 298.842 265.79 298.842 266.69ZM297.15 266.348C297.15 265.724 297.012 265.19 296.736 264.746C296.46 264.29 296.082 263.948 295.602 263.72C295.134 263.48 294.612 263.36 294.036 263.36C293.208 263.36 292.5 263.624 291.912 264.152C291.336 264.68 291.006 265.412 290.922 266.348H297.15ZM301.526 272.108C301.214 272.108 300.95 272 300.734 271.784C300.518 271.568 300.41 271.304 300.41 270.992C300.41 270.68 300.518 270.416 300.734 270.2C300.95 269.984 301.214 269.876 301.526 269.876C301.826 269.876 302.078 269.984 302.282 270.2C302.498 270.416 302.606 270.68 302.606 270.992C302.606 271.304 302.498 271.568 302.282 271.784C302.078 272 301.826 272.108 301.526 272.108Z" fill="#202023" fill-opacity="0.8"/>
<path d="M147.003 50.2501H205.997L247.75 92.0026V150.998L205.997 192.75H147.003L105.25 150.998V92.0026L147.003 50.2501Z" stroke="white" stroke-width="4" stroke-linecap="round" stroke-linejoin="round"/>
<path d="M197.875 100.125L155.125 142.875" stroke="white" stroke-width="4" stroke-linecap="round" stroke-linejoin="round"/>
<path d="M155.125 100.125L197.875 142.875" stroke="white" stroke-width="4" stroke-linecap="round" stroke-linejoin="round"/>
<defs>
<filter id="filter0_d_82_2333" x="81.4402" y="29.4401" width="191.12" height="191.12" filterUnits="userSpaceOnUse" color-interpolation-filters="sRGB">
<feFlood flood-opacity="0" result="BackgroundImageFix"/>
<feColorMatrix in="SourceAlpha" type="matrix" values="0 0 0 0 0 0 0 0 0 0 0 0 0 0 0 0 0 0 127 0" result="hardAlpha"/>
<feOffset dy="4"/>
<feGaussianBlur stdDeviation="5"/>
<feComposite in2="hardAlpha" operator="out"/>
<feColorMatrix type="matrix" values="0 0 0 0 0 0 0 0 0 0 0 0 0 0 0 0 0 0 0.25 0"/>
<feBlend mode="normal" in2="BackgroundImageFix" result="effect1_dropShadow_82_2333"/>
<feBlend mode="normal" in="SourceGraphic" in2="effect1_dropShadow_82_2333" result="shape"/>
</filter>
</defs>
</svg>
