<svg width="127" height="54" viewBox="0 0 127 54" fill="none" xmlns="http://www.w3.org/2000/svg">
<path d="M10.2678 40.252C8.63581 40.252 7.20781 39.964 5.98381 39.388C4.75981 38.812 3.79981 38.032 3.10381 37.048C2.43181 36.064 2.04781 34.972 1.95181 33.772H3.64381C3.83581 35.092 4.44781 36.268 5.47981 37.3C6.53581 38.332 8.13181 38.848 10.2678 38.848C11.5158 38.848 12.5958 38.62 13.5078 38.164C14.4438 37.708 15.1638 37.084 15.6678 36.292C16.1718 35.5 16.4238 34.624 16.4238 33.664C16.4238 32.44 16.1238 31.468 15.5238 30.748C14.9478 30.028 14.2158 29.488 13.3278 29.128C12.4638 28.768 11.2878 28.384 9.79981 27.976C8.16781 27.544 6.84781 27.112 5.83981 26.68C4.85581 26.248 4.01581 25.588 3.31981 24.7C2.64781 23.788 2.31181 22.552 2.31181 20.992C2.31181 19.792 2.62381 18.7 3.24781 17.716C3.89581 16.708 4.80781 15.916 5.98381 15.34C7.15981 14.764 8.51581 14.476 10.0518 14.476C12.2838 14.476 14.0838 15.028 15.4518 16.132C16.8198 17.236 17.6358 18.592 17.8998 20.2H16.1718C16.0278 19.552 15.7038 18.892 15.1998 18.22C14.7198 17.548 14.0238 16.996 13.1118 16.564C12.2238 16.108 11.1558 15.88 9.90781 15.88C8.22781 15.88 6.81181 16.348 5.65981 17.284C4.50781 18.196 3.93181 19.42 3.93181 20.956C3.93181 22.18 4.23181 23.164 4.83181 23.908C5.43181 24.628 6.16381 25.18 7.02781 25.564C7.91581 25.924 9.10381 26.296 10.5918 26.68C12.2478 27.136 13.5558 27.58 14.5158 28.012C15.4998 28.42 16.3278 29.08 16.9998 29.992C17.6958 30.88 18.0438 32.092 18.0438 33.628C18.0438 34.756 17.7438 35.824 17.1438 36.832C16.5438 37.84 15.6558 38.668 14.4798 39.316C13.3278 39.94 11.9238 40.252 10.2678 40.252ZM21.8854 30.208C21.8854 28.168 22.2814 26.392 23.0734 24.88C23.8894 23.368 25.0054 22.216 26.4214 21.424C27.8614 20.608 29.5054 20.2 31.3534 20.2C33.8014 20.2 35.8054 20.812 37.3654 22.036C38.9494 23.26 39.9334 24.904 40.3174 26.968H38.6254C38.3134 25.288 37.4974 23.968 36.1774 23.008C34.8814 22.048 33.2734 21.568 31.3534 21.568C29.9134 21.568 28.6054 21.892 27.4294 22.54C26.2534 23.164 25.3054 24.136 24.5854 25.456C23.8894 26.752 23.5414 28.336 23.5414 30.208C23.5414 32.104 23.8894 33.7 24.5854 34.996C25.3054 36.292 26.2534 37.264 27.4294 37.912C28.6054 38.56 29.9134 38.884 31.3534 38.884C33.2734 38.884 34.8814 38.404 36.1774 37.444C37.4974 36.484 38.3134 35.164 38.6254 33.484H40.3174C39.9334 35.524 38.9494 37.168 37.3654 38.416C35.7814 39.664 33.7774 40.288 31.3534 40.288C29.5054 40.288 27.8614 39.88 26.4214 39.064C25.0054 38.248 23.8894 37.084 23.0734 35.572C22.2814 34.036 21.8854 32.248 21.8854 30.208ZM78.2954 20.056C80.6234 20.056 82.5194 20.776 83.9834 22.216C85.4474 23.632 86.1794 25.744 86.1794 28.552V40H84.5954V28.66C84.5954 26.332 84.0074 24.556 82.8314 23.332C81.6554 22.084 80.0594 21.46 78.0434 21.46C75.9314 21.46 74.2394 22.132 72.9674 23.476C71.7194 24.82 71.0954 26.812 71.0954 29.452V40H69.4754V20.452H71.0954V24.592C71.6474 23.128 72.5594 22.012 73.8314 21.244C75.1274 20.452 76.6154 20.056 78.2954 20.056ZM92.7331 16.096C92.3491 16.096 92.0251 15.976 91.7611 15.736C91.4971 15.472 91.3651 15.124 91.3651 14.692C91.3651 14.284 91.4971 13.948 91.7611 13.684C92.0251 13.42 92.3491 13.288 92.7331 13.288C93.1171 13.288 93.4411 13.42 93.7051 13.684C93.9691 13.948 94.1011 14.284 94.1011 14.692C94.1011 15.124 93.9691 15.472 93.7051 15.736C93.4411 15.976 93.1171 16.096 92.7331 16.096ZM93.5251 20.452V40H91.9051V20.452H93.5251ZM106.916 21.892H101.84V40H100.22V21.892H97.2677V20.452H100.22V19.084C100.22 17.044 100.736 15.532 101.768 14.548C102.8 13.54 104.492 13.036 106.844 13.036V14.476C104.972 14.476 103.664 14.836 102.92 15.556C102.2 16.276 101.84 17.452 101.84 19.084V20.452H106.916V21.892ZM126.329 20.452L114.953 49.18H113.297L116.933 40L108.725 20.452H110.489L117.833 38.2L124.673 20.452H126.329Z" fill="#981F2B"/>
<path d="M44.2448 30.208C44.2448 28.192 44.6408 26.428 45.4328 24.916C46.2488 23.404 47.3648 22.24 48.7808 21.424C50.2208 20.608 51.8528 20.2 53.6768 20.2C55.7408 20.2 57.4928 20.704 58.9328 21.712C60.3728 22.72 61.3808 24.004 61.9568 25.564V20.452H63.5768V40H61.9568V34.852C61.3808 36.436 60.3608 37.744 58.8968 38.776C57.4568 39.784 55.7168 40.288 53.6768 40.288C51.8528 40.288 50.2208 39.88 48.7808 39.064C47.3648 38.224 46.2488 37.048 45.4328 35.536C44.6408 34 44.2448 32.224 44.2448 30.208ZM61.9568 30.208C61.9568 28.504 61.5968 27.004 60.8768 25.708C60.1808 24.388 59.2208 23.38 57.9968 22.684C56.7728 21.964 55.4048 21.604 53.8928 21.604C52.3088 21.604 50.9168 21.952 49.7168 22.648C48.5168 23.32 47.5808 24.304 46.9088 25.6C46.2368 26.896 45.9008 28.432 45.9008 30.208C45.9008 31.984 46.2368 33.52 46.9088 34.816C47.5808 36.112 48.5168 37.108 49.7168 37.804C50.9408 38.5 52.3328 38.848 53.8928 38.848C55.4048 38.848 56.7728 38.5 57.9968 37.804C59.2448 37.084 60.2168 36.076 60.9128 34.78C61.6088 33.46 61.9568 31.936 61.9568 30.208Z" fill="white"/>
<rect x="43.125" y="19.575" width="20.025" height="20.025" rx="10.0125" fill="#981F2B"/>
<path d="M58.35 29.5875C58.35 32.5113 55.9959 34.875 53.1 34.875C50.2041 34.875 47.85 32.5113 47.85 29.5875C47.85 26.6637 50.2041 24.3 53.1 24.3C55.9959 24.3 58.35 26.6637 58.35 29.5875Z" fill="#981F2B" stroke="white" stroke-width="1.2"/>
<ellipse cx="53.1" cy="29.5875" rx="3.225" ry="3.2625" fill="white"/>
<circle cx="54.4875" cy="28.3125" r="0.6375" fill="#981F2B"/>
<rect x="59.85" y="29.925" width="3.3" height="9.675" fill="#981F2B"/>
</svg>
