<svg width="353" height="284" viewBox="0 0 353 284" fill="none" xmlns="http://www.w3.org/2000/svg">
<g filter="url(#filter0_d_82_2332)">
<path d="M155.215 36C164.453 20 187.547 20 196.785 36L266.067 156C275.304 172 263.757 192 245.282 192H106.718C88.2427 192 76.6958 172 85.9334 156L155.215 36Z" fill="#FBC000"/>
</g>
<path d="M162.598 44.3805L96.2143 155.762C94.8456 158.145 94.1214 160.846 94.1138 163.596C94.1061 166.347 94.8152 169.052 96.1706 171.442C97.526 173.832 99.4804 175.823 101.839 177.218C104.198 178.614 106.88 179.363 109.616 179.394H242.384C245.121 179.363 247.802 178.614 250.161 177.218C252.52 175.823 254.474 173.832 255.829 171.442C257.185 169.052 257.894 166.347 257.886 163.596C257.879 160.846 257.154 158.145 255.786 155.762L189.402 44.3805C188.005 42.0655 186.038 40.1514 183.69 38.8231C181.343 37.4947 178.694 36.7969 176 36.7969C173.306 36.7969 170.657 37.4947 168.31 38.8231C165.962 40.1514 163.995 42.0655 162.598 44.3805Z" stroke="white" stroke-width="3.8" stroke-linecap="round" stroke-linejoin="round"/>
<path d="M176 84.8687V116.377" stroke="white" stroke-width="3.8" stroke-linecap="round" stroke-linejoin="round"/>
<path d="M176 147.885H176.078" stroke="white" stroke-width="3.8" stroke-linecap="round" stroke-linejoin="round"/>
<rect y="205" width="353" height="38" rx="19" fill="white"/>
<rect x="41" y="235" width="271" height="38" rx="19" fill="white"/>
<path d="M31.1354 231.14C29.8421 231.14 28.6621 230.84 27.5954 230.24C26.5287 229.627 25.6821 228.78 25.0554 227.7C24.4421 226.607 24.1354 225.38 24.1354 224.02C24.1354 222.66 24.4421 221.44 25.0554 220.36C25.6821 219.267 26.5287 218.42 27.5954 217.82C28.6621 217.207 29.8421 216.9 31.1354 216.9C32.4421 216.9 33.6287 217.207 34.6954 217.82C35.7621 218.42 36.6021 219.26 37.2154 220.34C37.8287 221.42 38.1354 222.647 38.1354 224.02C38.1354 225.393 37.8287 226.62 37.2154 227.7C36.6021 228.78 35.7621 229.627 34.6954 230.24C33.6287 230.84 32.4421 231.14 31.1354 231.14ZM31.1354 229.56C32.1087 229.56 32.9821 229.333 33.7554 228.88C34.5421 228.427 35.1554 227.78 35.5954 226.94C36.0487 226.1 36.2754 225.127 36.2754 224.02C36.2754 222.9 36.0487 221.927 35.5954 221.1C35.1554 220.26 34.5487 219.613 33.7754 219.16C33.0021 218.707 32.1221 218.48 31.1354 218.48C30.1487 218.48 29.2687 218.707 28.4954 219.16C27.7221 219.613 27.1087 220.26 26.6554 221.1C26.2154 221.927 25.9954 222.9 25.9954 224.02C25.9954 225.127 26.2154 226.1 26.6554 226.94C27.1087 227.78 27.7221 228.427 28.4954 228.88C29.2821 229.333 30.1621 229.56 31.1354 229.56ZM45.318 231.18C44.2914 231.18 43.358 230.947 42.518 230.48C41.6914 230.013 41.038 229.353 40.558 228.5C40.0914 227.633 39.858 226.633 39.858 225.5C39.858 224.38 40.098 223.393 40.578 222.54C41.0714 221.673 41.738 221.013 42.578 220.56C43.418 220.093 44.358 219.86 45.398 219.86C46.438 219.86 47.378 220.093 48.218 220.56C49.058 221.013 49.718 221.667 50.198 222.52C50.6914 223.373 50.938 224.367 50.938 225.5C50.938 226.633 50.6847 227.633 50.178 228.5C49.6847 229.353 49.0114 230.013 48.158 230.48C47.3047 230.947 46.358 231.18 45.318 231.18ZM45.318 229.58C45.9714 229.58 46.5847 229.427 47.158 229.12C47.7314 228.813 48.1914 228.353 48.538 227.74C48.898 227.127 49.078 226.38 49.078 225.5C49.078 224.62 48.9047 223.873 48.558 223.26C48.2114 222.647 47.758 222.193 47.198 221.9C46.638 221.593 46.0314 221.44 45.378 221.44C44.7114 221.44 44.098 221.593 43.538 221.9C42.9914 222.193 42.5514 222.647 42.218 223.26C41.8847 223.873 41.718 224.62 41.718 225.5C41.718 226.393 41.878 227.147 42.198 227.76C42.5314 228.373 42.9714 228.833 43.518 229.14C44.0647 229.433 44.6647 229.58 45.318 229.58ZM55.151 222.06C55.511 221.433 56.0443 220.913 56.751 220.5C57.471 220.073 58.3043 219.86 59.251 219.86C60.2243 219.86 61.1043 220.093 61.891 220.56C62.691 221.027 63.3177 221.687 63.771 222.54C64.2243 223.38 64.451 224.36 64.451 225.48C64.451 226.587 64.2243 227.573 63.771 228.44C63.3177 229.307 62.691 229.98 61.891 230.46C61.1043 230.94 60.2243 231.18 59.251 231.18C58.3177 231.18 57.491 230.973 56.771 230.56C56.0643 230.133 55.5243 229.607 55.151 228.98V236.2H53.331V220.04H55.151V222.06ZM62.591 225.48C62.591 224.653 62.4243 223.933 62.091 223.32C61.7577 222.707 61.3043 222.24 60.731 221.92C60.171 221.6 59.551 221.44 58.871 221.44C58.2043 221.44 57.5843 221.607 57.011 221.94C56.451 222.26 55.9977 222.733 55.651 223.36C55.3177 223.973 55.151 224.687 55.151 225.5C55.151 226.327 55.3177 227.053 55.651 227.68C55.9977 228.293 56.451 228.767 57.011 229.1C57.5843 229.42 58.2043 229.58 58.871 229.58C59.551 229.58 60.171 229.42 60.731 229.1C61.3043 228.767 61.7577 228.293 62.091 227.68C62.4243 227.053 62.591 226.32 62.591 225.48ZM70.7266 231.18C69.8866 231.18 69.1333 231.04 68.4666 230.76C67.8 230.467 67.2733 230.067 66.8866 229.56C66.5 229.04 66.2866 228.447 66.2466 227.78H68.1266C68.18 228.327 68.4333 228.773 68.8866 229.12C69.3533 229.467 69.96 229.64 70.7066 229.64C71.4 229.64 71.9466 229.487 72.3466 229.18C72.7466 228.873 72.9466 228.487 72.9466 228.02C72.9466 227.54 72.7333 227.187 72.3066 226.96C71.88 226.72 71.22 226.487 70.3266 226.26C69.5133 226.047 68.8466 225.833 68.3266 225.62C67.82 225.393 67.38 225.067 67.0066 224.64C66.6466 224.2 66.4666 223.627 66.4666 222.92C66.4666 222.36 66.6333 221.847 66.9666 221.38C67.3 220.913 67.7733 220.547 68.3866 220.28C69 220 69.7 219.86 70.4866 219.86C71.7 219.86 72.68 220.167 73.4266 220.78C74.1733 221.393 74.5733 222.233 74.6266 223.3H72.8066C72.7666 222.727 72.5333 222.267 72.1066 221.92C71.6933 221.573 71.1333 221.4 70.4266 221.4C69.7733 221.4 69.2533 221.54 68.8666 221.82C68.48 222.1 68.2866 222.467 68.2866 222.92C68.2866 223.28 68.4 223.58 68.6266 223.82C68.8666 224.047 69.16 224.233 69.5066 224.38C69.8666 224.513 70.36 224.667 70.9866 224.84C71.7733 225.053 72.4133 225.267 72.9066 225.48C73.4 225.68 73.82 225.987 74.1666 226.4C74.5266 226.813 74.7133 227.353 74.7266 228.02C74.7266 228.62 74.56 229.16 74.2266 229.64C73.8933 230.12 73.42 230.5 72.8066 230.78C72.2066 231.047 71.5133 231.18 70.7266 231.18ZM79.6559 217.06L79.4359 227.06H77.9159L77.6959 217.06H79.6559ZM78.7559 231.12C78.4092 231.12 78.1159 231 77.8759 230.76C77.6359 230.52 77.5159 230.227 77.5159 229.88C77.5159 229.533 77.6359 229.24 77.8759 229C78.1159 228.76 78.4092 228.64 78.7559 228.64C79.0892 228.64 79.3692 228.76 79.5959 229C79.8359 229.24 79.9559 229.533 79.9559 229.88C79.9559 230.227 79.8359 230.52 79.5959 230.76C79.3692 231 79.0892 231.12 78.7559 231.12ZM90.3649 217.06V225.88C90.3649 227.12 90.6649 228.04 91.2649 228.64C91.8783 229.24 92.7249 229.54 93.8049 229.54C94.8716 229.54 95.7049 229.24 96.3049 228.64C96.9183 228.04 97.2249 227.12 97.2249 225.88V217.06H99.0449V225.86C99.0449 227.02 98.8116 228 98.3449 228.8C97.8783 229.587 97.2449 230.173 96.4449 230.56C95.6583 230.947 94.7716 231.14 93.7849 231.14C92.7983 231.14 91.9049 230.947 91.1049 230.56C90.3183 230.173 89.6916 229.587 89.2249 228.8C88.7716 228 88.5449 227.02 88.5449 225.86V217.06H90.3649ZM107.421 219.84C108.754 219.84 109.834 220.247 110.661 221.06C111.488 221.86 111.901 223.02 111.901 224.54V231H110.101V224.8C110.101 223.707 109.828 222.873 109.281 222.3C108.734 221.713 107.988 221.42 107.041 221.42C106.081 221.42 105.314 221.72 104.741 222.32C104.181 222.92 103.901 223.793 103.901 224.94V231H102.081V220.04H103.901V221.6C104.261 221.04 104.748 220.607 105.361 220.3C105.988 219.993 106.674 219.84 107.421 219.84ZM114.194 225.48C114.194 224.36 114.421 223.38 114.874 222.54C115.327 221.687 115.947 221.027 116.734 220.56C117.534 220.093 118.421 219.86 119.394 219.86C120.354 219.86 121.187 220.067 121.894 220.48C122.601 220.893 123.127 221.413 123.474 222.04V220.04H125.314V231H123.474V228.96C123.114 229.6 122.574 230.133 121.854 230.56C121.147 230.973 120.321 231.18 119.374 231.18C118.401 231.18 117.521 230.94 116.734 230.46C115.947 229.98 115.327 229.307 114.874 228.44C114.421 227.573 114.194 226.587 114.194 225.48ZM123.474 225.5C123.474 224.673 123.307 223.953 122.974 223.34C122.641 222.727 122.187 222.26 121.614 221.94C121.054 221.607 120.434 221.44 119.754 221.44C119.074 221.44 118.454 221.6 117.894 221.92C117.334 222.24 116.887 222.707 116.554 223.32C116.221 223.933 116.054 224.653 116.054 225.48C116.054 226.32 116.221 227.053 116.554 227.68C116.887 228.293 117.334 228.767 117.894 229.1C118.454 229.42 119.074 229.58 119.754 229.58C120.434 229.58 121.054 229.42 121.614 229.1C122.187 228.767 122.641 228.293 122.974 227.68C123.307 227.053 123.474 226.327 123.474 225.5ZM130.21 222.08C130.583 221.427 131.13 220.893 131.85 220.48C132.57 220.067 133.39 219.86 134.31 219.86C135.296 219.86 136.183 220.093 136.97 220.56C137.756 221.027 138.376 221.687 138.83 222.54C139.283 223.38 139.51 224.36 139.51 225.48C139.51 226.587 139.283 227.573 138.83 228.44C138.376 229.307 137.75 229.98 136.95 230.46C136.163 230.94 135.283 231.18 134.31 231.18C133.363 231.18 132.53 230.973 131.81 230.56C131.103 230.147 130.57 229.62 130.21 228.98V231H128.39V216.2H130.21V222.08ZM137.65 225.48C137.65 224.653 137.483 223.933 137.15 223.32C136.816 222.707 136.363 222.24 135.79 221.92C135.23 221.6 134.61 221.44 133.93 221.44C133.263 221.44 132.643 221.607 132.07 221.94C131.51 222.26 131.056 222.733 130.71 223.36C130.376 223.973 130.21 224.687 130.21 225.5C130.21 226.327 130.376 227.053 130.71 227.68C131.056 228.293 131.51 228.767 132.07 229.1C132.643 229.42 133.263 229.58 133.93 229.58C134.61 229.58 135.23 229.42 135.79 229.1C136.363 228.767 136.816 228.293 137.15 227.68C137.483 227.053 137.65 226.32 137.65 225.48ZM143.725 216.2V231H141.905V216.2H143.725ZM156.827 225.1C156.827 225.447 156.807 225.813 156.767 226.2H148.007C148.074 227.28 148.44 228.127 149.107 228.74C149.787 229.34 150.607 229.64 151.567 229.64C152.354 229.64 153.007 229.46 153.527 229.1C154.06 228.727 154.434 228.233 154.647 227.62H156.607C156.314 228.673 155.727 229.533 154.847 230.2C153.967 230.853 152.874 231.18 151.567 231.18C150.527 231.18 149.594 230.947 148.767 230.48C147.954 230.013 147.314 229.353 146.847 228.5C146.38 227.633 146.147 226.633 146.147 225.5C146.147 224.367 146.374 223.373 146.827 222.52C147.28 221.667 147.914 221.013 148.727 220.56C149.554 220.093 150.5 219.86 151.567 219.86C152.607 219.86 153.527 220.087 154.327 220.54C155.127 220.993 155.74 221.62 156.167 222.42C156.607 223.207 156.827 224.1 156.827 225.1ZM154.947 224.72C154.947 224.027 154.794 223.433 154.487 222.94C154.18 222.433 153.76 222.053 153.227 221.8C152.707 221.533 152.127 221.4 151.487 221.4C150.567 221.4 149.78 221.693 149.127 222.28C148.487 222.867 148.12 223.68 148.027 224.72H154.947ZM166.781 221.54V228C166.781 228.533 166.895 228.913 167.121 229.14C167.348 229.353 167.741 229.46 168.301 229.46H169.641V231H168.001C166.988 231 166.228 230.767 165.721 230.3C165.215 229.833 164.961 229.067 164.961 228V221.54H163.541V220.04H164.961V217.28H166.781V220.04H169.641V221.54H166.781ZM176.627 231.18C175.6 231.18 174.667 230.947 173.827 230.48C173 230.013 172.347 229.353 171.867 228.5C171.4 227.633 171.167 226.633 171.167 225.5C171.167 224.38 171.407 223.393 171.887 222.54C172.38 221.673 173.047 221.013 173.887 220.56C174.727 220.093 175.667 219.86 176.707 219.86C177.747 219.86 178.687 220.093 179.527 220.56C180.367 221.013 181.027 221.667 181.507 222.52C182 223.373 182.247 224.367 182.247 225.5C182.247 226.633 181.993 227.633 181.487 228.5C180.993 229.353 180.32 230.013 179.467 230.48C178.613 230.947 177.667 231.18 176.627 231.18ZM176.627 229.58C177.28 229.58 177.893 229.427 178.467 229.12C179.04 228.813 179.5 228.353 179.847 227.74C180.207 227.127 180.387 226.38 180.387 225.5C180.387 224.62 180.213 223.873 179.867 223.26C179.52 222.647 179.067 222.193 178.507 221.9C177.947 221.593 177.34 221.44 176.687 221.44C176.02 221.44 175.407 221.593 174.847 221.9C174.3 222.193 173.86 222.647 173.527 223.26C173.193 223.873 173.027 224.62 173.027 225.5C173.027 226.393 173.187 227.147 173.507 227.76C173.84 228.373 174.28 228.833 174.827 229.14C175.373 229.433 175.973 229.58 176.627 229.58ZM190.912 218.26C190.565 218.26 190.272 218.14 190.032 217.9C189.792 217.66 189.672 217.367 189.672 217.02C189.672 216.673 189.792 216.38 190.032 216.14C190.272 215.9 190.565 215.78 190.912 215.78C191.245 215.78 191.525 215.9 191.752 216.14C191.992 216.38 192.112 216.673 192.112 217.02C192.112 217.367 191.992 217.66 191.752 217.9C191.525 218.14 191.245 218.26 190.912 218.26ZM191.792 220.04V231H189.972V220.04H191.792ZM194.214 225.48C194.214 224.36 194.44 223.38 194.894 222.54C195.347 221.687 195.967 221.027 196.754 220.56C197.554 220.093 198.447 219.86 199.434 219.86C200.287 219.86 201.08 220.06 201.814 220.46C202.547 220.847 203.107 221.36 203.494 222V216.2H205.334V231H203.494V228.94C203.134 229.593 202.6 230.133 201.894 230.56C201.187 230.973 200.36 231.18 199.414 231.18C198.44 231.18 197.554 230.94 196.754 230.46C195.967 229.98 195.347 229.307 194.894 228.44C194.44 227.573 194.214 226.587 194.214 225.48ZM203.494 225.5C203.494 224.673 203.327 223.953 202.994 223.34C202.66 222.727 202.207 222.26 201.634 221.94C201.074 221.607 200.454 221.44 199.774 221.44C199.094 221.44 198.474 221.6 197.914 221.92C197.354 222.24 196.907 222.707 196.574 223.32C196.24 223.933 196.074 224.653 196.074 225.48C196.074 226.32 196.24 227.053 196.574 227.68C196.907 228.293 197.354 228.767 197.914 229.1C198.474 229.42 199.094 229.58 199.774 229.58C200.454 229.58 201.074 229.42 201.634 229.1C202.207 228.767 202.66 228.293 202.994 227.68C203.327 227.053 203.494 226.327 203.494 225.5ZM218.409 225.1C218.409 225.447 218.389 225.813 218.349 226.2H209.589C209.656 227.28 210.022 228.127 210.689 228.74C211.369 229.34 212.189 229.64 213.149 229.64C213.936 229.64 214.589 229.46 215.109 229.1C215.642 228.727 216.016 228.233 216.229 227.62H218.189C217.896 228.673 217.309 229.533 216.429 230.2C215.549 230.853 214.456 231.18 213.149 231.18C212.109 231.18 211.176 230.947 210.349 230.48C209.536 230.013 208.896 229.353 208.429 228.5C207.962 227.633 207.729 226.633 207.729 225.5C207.729 224.367 207.956 223.373 208.409 222.52C208.862 221.667 209.496 221.013 210.309 220.56C211.136 220.093 212.082 219.86 213.149 219.86C214.189 219.86 215.109 220.087 215.909 220.54C216.709 220.993 217.322 221.62 217.749 222.42C218.189 223.207 218.409 224.1 218.409 225.1ZM216.529 224.72C216.529 224.027 216.376 223.433 216.069 222.94C215.762 222.433 215.342 222.053 214.809 221.8C214.289 221.533 213.709 221.4 213.069 221.4C212.149 221.4 211.362 221.693 210.709 222.28C210.069 222.867 209.702 223.68 209.609 224.72H216.529ZM226.151 219.84C227.485 219.84 228.565 220.247 229.391 221.06C230.218 221.86 230.631 223.02 230.631 224.54V231H228.831V224.8C228.831 223.707 228.558 222.873 228.011 222.3C227.465 221.713 226.718 221.42 225.771 221.42C224.811 221.42 224.045 221.72 223.471 222.32C222.911 222.92 222.631 223.793 222.631 224.94V231H220.811V220.04H222.631V221.6C222.991 221.04 223.478 220.607 224.091 220.3C224.718 219.993 225.405 219.84 226.151 219.84ZM235.824 221.54V228C235.824 228.533 235.938 228.913 236.164 229.14C236.391 229.353 236.784 229.46 237.344 229.46H238.684V231H237.044C236.031 231 235.271 230.767 234.764 230.3C234.258 229.833 234.004 229.067 234.004 228V221.54H232.584V220.04H234.004V217.28H235.824V220.04H238.684V221.54H235.824ZM241.83 218.26C241.483 218.26 241.19 218.14 240.95 217.9C240.71 217.66 240.59 217.367 240.59 217.02C240.59 216.673 240.71 216.38 240.95 216.14C241.19 215.9 241.483 215.78 241.83 215.78C242.163 215.78 242.443 215.9 242.67 216.14C242.91 216.38 243.03 216.673 243.03 217.02C243.03 217.367 242.91 217.66 242.67 217.9C242.443 218.14 242.163 218.26 241.83 218.26ZM242.71 220.04V231H240.89V220.04H242.71ZM250.271 221.54H247.971V231H246.151V221.54H244.731V220.04H246.151V219.26C246.151 218.033 246.465 217.14 247.091 216.58C247.731 216.007 248.751 215.72 250.151 215.72V217.24C249.351 217.24 248.785 217.4 248.451 217.72C248.131 218.027 247.971 218.54 247.971 219.26V220.04H250.271V221.54ZM261.834 220.04L255.234 236.16H253.354L255.514 230.88L251.094 220.04H253.114L256.554 228.92L259.954 220.04H261.834ZM268.315 225.48C268.315 224.36 268.542 223.38 268.995 222.54C269.448 221.687 270.068 221.027 270.855 220.56C271.655 220.093 272.542 219.86 273.515 219.86C274.475 219.86 275.308 220.067 276.015 220.48C276.722 220.893 277.248 221.413 277.595 222.04V220.04H279.435V231H277.595V228.96C277.235 229.6 276.695 230.133 275.975 230.56C275.268 230.973 274.442 231.18 273.495 231.18C272.522 231.18 271.642 230.94 270.855 230.46C270.068 229.98 269.448 229.307 268.995 228.44C268.542 227.573 268.315 226.587 268.315 225.48ZM277.595 225.5C277.595 224.673 277.428 223.953 277.095 223.34C276.762 222.727 276.308 222.26 275.735 221.94C275.175 221.607 274.555 221.44 273.875 221.44C273.195 221.44 272.575 221.6 272.015 221.92C271.455 222.24 271.008 222.707 270.675 223.32C270.342 223.933 270.175 224.653 270.175 225.48C270.175 226.32 270.342 227.053 270.675 227.68C271.008 228.293 271.455 228.767 272.015 229.1C272.575 229.42 273.195 229.58 273.875 229.58C274.555 229.58 275.175 229.42 275.735 229.1C276.308 228.767 276.762 228.293 277.095 227.68C277.428 227.053 277.595 226.327 277.595 225.5ZM287.163 225.48C287.163 224.36 287.389 223.38 287.843 222.54C288.296 221.687 288.916 221.027 289.703 220.56C290.503 220.093 291.396 219.86 292.383 219.86C293.236 219.86 294.029 220.06 294.763 220.46C295.496 220.847 296.056 221.36 296.443 222V216.2H298.283V231H296.443V228.94C296.083 229.593 295.549 230.133 294.843 230.56C294.136 230.973 293.309 231.18 292.363 231.18C291.389 231.18 290.503 230.94 289.703 230.46C288.916 229.98 288.296 229.307 287.843 228.44C287.389 227.573 287.163 226.587 287.163 225.48ZM296.443 225.5C296.443 224.673 296.276 223.953 295.943 223.34C295.609 222.727 295.156 222.26 294.583 221.94C294.023 221.607 293.403 221.44 292.723 221.44C292.043 221.44 291.423 221.6 290.863 221.92C290.303 222.24 289.856 222.707 289.523 223.32C289.189 223.933 289.023 224.653 289.023 225.48C289.023 226.32 289.189 227.053 289.523 227.68C289.856 228.293 290.303 228.767 290.863 229.1C291.423 229.42 292.043 229.58 292.723 229.58C293.403 229.58 294.023 229.42 294.583 229.1C295.156 228.767 295.609 228.293 295.943 227.68C296.276 227.053 296.443 226.327 296.443 225.5ZM306.138 231.18C305.112 231.18 304.178 230.947 303.338 230.48C302.512 230.013 301.858 229.353 301.378 228.5C300.912 227.633 300.678 226.633 300.678 225.5C300.678 224.38 300.918 223.393 301.398 222.54C301.892 221.673 302.558 221.013 303.398 220.56C304.238 220.093 305.178 219.86 306.218 219.86C307.258 219.86 308.198 220.093 309.038 220.56C309.878 221.013 310.538 221.667 311.018 222.52C311.512 223.373 311.758 224.367 311.758 225.5C311.758 226.633 311.505 227.633 310.998 228.5C310.505 229.353 309.832 230.013 308.978 230.48C308.125 230.947 307.178 231.18 306.138 231.18ZM306.138 229.58C306.792 229.58 307.405 229.427 307.978 229.12C308.552 228.813 309.012 228.353 309.358 227.74C309.718 227.127 309.898 226.38 309.898 225.5C309.898 224.62 309.725 223.873 309.378 223.26C309.032 222.647 308.578 222.193 308.018 221.9C307.458 221.593 306.852 221.44 306.198 221.44C305.532 221.44 304.918 221.593 304.358 221.9C303.812 222.193 303.372 222.647 303.038 223.26C302.705 223.873 302.538 224.62 302.538 225.5C302.538 226.393 302.698 227.147 303.018 227.76C303.352 228.373 303.792 228.833 304.338 229.14C304.885 229.433 305.485 229.58 306.138 229.58ZM313.471 225.5C313.471 224.367 313.698 223.38 314.151 222.54C314.605 221.687 315.231 221.027 316.031 220.56C316.845 220.093 317.771 219.86 318.811 219.86C320.158 219.86 321.265 220.187 322.131 220.84C323.011 221.493 323.591 222.4 323.871 223.56H321.911C321.725 222.893 321.358 222.367 320.811 221.98C320.278 221.593 319.611 221.4 318.811 221.4C317.771 221.4 316.931 221.76 316.291 222.48C315.651 223.187 315.331 224.193 315.331 225.5C315.331 226.82 315.651 227.84 316.291 228.56C316.931 229.28 317.771 229.64 318.811 229.64C319.611 229.64 320.278 229.453 320.811 229.08C321.345 228.707 321.711 228.173 321.911 227.48H323.871C323.578 228.6 322.991 229.5 322.111 230.18C321.231 230.847 320.131 231.18 318.811 231.18C317.771 231.18 316.845 230.947 316.031 230.48C315.231 230.013 314.605 229.353 314.151 228.5C313.698 227.647 313.471 226.647 313.471 225.5ZM328.18 228.48L325.94 233.86H324.72L326.18 228.48H328.18ZM84.9651 251.54V258C84.9651 258.533 85.0784 258.913 85.3051 259.14C85.5317 259.353 85.9251 259.46 86.4851 259.46H87.8251V261H86.1851C85.1717 261 84.4117 260.767 83.9051 260.3C83.3984 259.833 83.1451 259.067 83.1451 258V251.54H81.7251V250.04H83.1451V247.28H84.9651V250.04H87.8251V251.54H84.9651ZM91.8502 251.82C92.1702 251.193 92.6236 250.707 93.2102 250.36C93.8102 250.013 94.5369 249.84 95.3902 249.84V251.72H94.9102C92.8702 251.72 91.8502 252.827 91.8502 255.04V261H90.0302V250.04H91.8502V251.82ZM106.931 250.04L100.331 266.16H98.4512L100.611 260.88L96.1912 250.04H98.2112L101.651 258.92L105.051 250.04H106.931ZM127.273 249.84C128.126 249.84 128.886 250.02 129.553 250.38C130.219 250.727 130.746 251.253 131.133 251.96C131.519 252.667 131.713 253.527 131.713 254.54V261H129.913V254.8C129.913 253.707 129.639 252.873 129.093 252.3C128.559 251.713 127.833 251.42 126.913 251.42C125.966 251.42 125.213 251.727 124.653 252.34C124.093 252.94 123.813 253.813 123.813 254.96V261H122.013V254.8C122.013 253.707 121.739 252.873 121.193 252.3C120.659 251.713 119.933 251.42 119.013 251.42C118.066 251.42 117.313 251.727 116.753 252.34C116.193 252.94 115.913 253.813 115.913 254.96V261H114.093V250.04H115.913V251.62C116.273 251.047 116.753 250.607 117.353 250.3C117.966 249.993 118.639 249.84 119.373 249.84C120.293 249.84 121.106 250.047 121.813 250.46C122.519 250.873 123.046 251.48 123.393 252.28C123.699 251.507 124.206 250.907 124.913 250.48C125.619 250.053 126.406 249.84 127.273 249.84ZM139.478 261.18C138.452 261.18 137.518 260.947 136.678 260.48C135.852 260.013 135.198 259.353 134.718 258.5C134.252 257.633 134.018 256.633 134.018 255.5C134.018 254.38 134.258 253.393 134.738 252.54C135.232 251.673 135.898 251.013 136.738 250.56C137.578 250.093 138.518 249.86 139.558 249.86C140.598 249.86 141.538 250.093 142.378 250.56C143.218 251.013 143.878 251.667 144.358 252.52C144.852 253.373 145.098 254.367 145.098 255.5C145.098 256.633 144.845 257.633 144.338 258.5C143.845 259.353 143.172 260.013 142.318 260.48C141.465 260.947 140.518 261.18 139.478 261.18ZM139.478 259.58C140.132 259.58 140.745 259.427 141.318 259.12C141.892 258.813 142.352 258.353 142.698 257.74C143.058 257.127 143.238 256.38 143.238 255.5C143.238 254.62 143.065 253.873 142.718 253.26C142.372 252.647 141.918 252.193 141.358 251.9C140.798 251.593 140.192 251.44 139.538 251.44C138.872 251.44 138.258 251.593 137.698 251.9C137.152 252.193 136.712 252.647 136.378 253.26C136.045 253.873 135.878 254.62 135.878 255.5C135.878 256.393 136.038 257.147 136.358 257.76C136.692 258.373 137.132 258.833 137.678 259.14C138.225 259.433 138.825 259.58 139.478 259.58ZM151.571 259.32L154.971 250.04H156.911L152.611 261H150.491L146.191 250.04H148.151L151.571 259.32ZM159.642 248.26C159.295 248.26 159.002 248.14 158.762 247.9C158.522 247.66 158.402 247.367 158.402 247.02C158.402 246.673 158.522 246.38 158.762 246.14C159.002 245.9 159.295 245.78 159.642 245.78C159.975 245.78 160.255 245.9 160.482 246.14C160.722 246.38 160.842 246.673 160.842 247.02C160.842 247.367 160.722 247.66 160.482 247.9C160.255 248.14 159.975 248.26 159.642 248.26ZM160.522 250.04V261H158.702V250.04H160.522ZM168.964 249.84C170.297 249.84 171.377 250.247 172.204 251.06C173.031 251.86 173.444 253.02 173.444 254.54V261H171.644V254.8C171.644 253.707 171.371 252.873 170.824 252.3C170.277 251.713 169.531 251.42 168.584 251.42C167.624 251.42 166.857 251.72 166.284 252.32C165.724 252.92 165.444 253.793 165.444 254.94V261H163.624V250.04H165.444V251.6C165.804 251.04 166.291 250.607 166.904 250.3C167.531 249.993 168.217 249.84 168.964 249.84ZM180.937 249.86C181.884 249.86 182.71 250.067 183.417 250.48C184.137 250.893 184.67 251.413 185.017 252.04V250.04H186.857V261.24C186.857 262.24 186.644 263.127 186.217 263.9C185.79 264.687 185.177 265.3 184.377 265.74C183.59 266.18 182.67 266.4 181.617 266.4C180.177 266.4 178.977 266.06 178.017 265.38C177.057 264.7 176.49 263.773 176.317 262.6H178.117C178.317 263.267 178.73 263.8 179.357 264.2C179.984 264.613 180.737 264.82 181.617 264.82C182.617 264.82 183.43 264.507 184.057 263.88C184.697 263.253 185.017 262.373 185.017 261.24V258.94C184.657 259.58 184.124 260.113 183.417 260.54C182.71 260.967 181.884 261.18 180.937 261.18C179.964 261.18 179.077 260.94 178.277 260.46C177.49 259.98 176.87 259.307 176.417 258.44C175.964 257.573 175.737 256.587 175.737 255.48C175.737 254.36 175.964 253.38 176.417 252.54C176.87 251.687 177.49 251.027 178.277 250.56C179.077 250.093 179.964 249.86 180.937 249.86ZM185.017 255.5C185.017 254.673 184.85 253.953 184.517 253.34C184.184 252.727 183.73 252.26 183.157 251.94C182.597 251.607 181.977 251.44 181.297 251.44C180.617 251.44 179.997 251.6 179.437 251.92C178.877 252.24 178.43 252.707 178.097 253.32C177.764 253.933 177.597 254.653 177.597 255.48C177.597 256.32 177.764 257.053 178.097 257.68C178.43 258.293 178.877 258.767 179.437 259.1C179.997 259.42 180.617 259.58 181.297 259.58C181.977 259.58 182.597 259.42 183.157 259.1C183.73 258.767 184.184 258.293 184.517 257.68C184.85 257.053 185.017 256.327 185.017 255.5ZM194.585 255.48C194.585 254.36 194.811 253.38 195.265 252.54C195.718 251.687 196.338 251.027 197.125 250.56C197.925 250.093 198.811 249.86 199.785 249.86C200.745 249.86 201.578 250.067 202.285 250.48C202.991 250.893 203.518 251.413 203.865 252.04V250.04H205.705V261H203.865V258.96C203.505 259.6 202.965 260.133 202.245 260.56C201.538 260.973 200.711 261.18 199.765 261.18C198.791 261.18 197.911 260.94 197.125 260.46C196.338 259.98 195.718 259.307 195.265 258.44C194.811 257.573 194.585 256.587 194.585 255.48ZM203.865 255.5C203.865 254.673 203.698 253.953 203.365 253.34C203.031 252.727 202.578 252.26 202.005 251.94C201.445 251.607 200.825 251.44 200.145 251.44C199.465 251.44 198.845 251.6 198.285 251.92C197.725 252.24 197.278 252.707 196.945 253.32C196.611 253.933 196.445 254.653 196.445 255.48C196.445 256.32 196.611 257.053 196.945 257.68C197.278 258.293 197.725 258.767 198.285 259.1C198.845 259.42 199.465 259.58 200.145 259.58C200.825 259.58 201.445 259.42 202.005 259.1C202.578 258.767 203.031 258.293 203.365 257.68C203.698 257.053 203.865 256.327 203.865 255.5ZM210.6 251.82C210.92 251.193 211.374 250.707 211.96 250.36C212.56 250.013 213.287 249.84 214.14 249.84V251.72H213.66C211.62 251.72 210.6 252.827 210.6 255.04V261H208.78V250.04H210.6V251.82ZM221.021 261.18C219.995 261.18 219.061 260.947 218.221 260.48C217.395 260.013 216.741 259.353 216.261 258.5C215.795 257.633 215.561 256.633 215.561 255.5C215.561 254.38 215.801 253.393 216.281 252.54C216.775 251.673 217.441 251.013 218.281 250.56C219.121 250.093 220.061 249.86 221.101 249.86C222.141 249.86 223.081 250.093 223.921 250.56C224.761 251.013 225.421 251.667 225.901 252.52C226.395 253.373 226.641 254.367 226.641 255.5C226.641 256.633 226.388 257.633 225.881 258.5C225.388 259.353 224.715 260.013 223.861 260.48C223.008 260.947 222.061 261.18 221.021 261.18ZM221.021 259.58C221.675 259.58 222.288 259.427 222.861 259.12C223.435 258.813 223.895 258.353 224.241 257.74C224.601 257.127 224.781 256.38 224.781 255.5C224.781 254.62 224.608 253.873 224.261 253.26C223.915 252.647 223.461 252.193 222.901 251.9C222.341 251.593 221.735 251.44 221.081 251.44C220.415 251.44 219.801 251.593 219.241 251.9C218.695 252.193 218.255 252.647 217.921 253.26C217.588 253.873 217.421 254.62 217.421 255.5C217.421 256.393 217.581 257.147 217.901 257.76C218.235 258.373 218.675 258.833 219.221 259.14C219.768 259.433 220.368 259.58 221.021 259.58ZM238.754 250.04V261H236.934V259.38C236.587 259.94 236.101 260.38 235.474 260.7C234.861 261.007 234.181 261.16 233.434 261.16C232.581 261.16 231.814 260.987 231.134 260.64C230.454 260.28 229.914 259.747 229.514 259.04C229.127 258.333 228.934 257.473 228.934 256.46V250.04H230.734V256.22C230.734 257.3 231.007 258.133 231.554 258.72C232.101 259.293 232.847 259.58 233.794 259.58C234.767 259.58 235.534 259.28 236.094 258.68C236.654 258.08 236.934 257.207 236.934 256.06V250.04H238.754ZM247.167 249.84C248.5 249.84 249.58 250.247 250.407 251.06C251.234 251.86 251.647 253.02 251.647 254.54V261H249.847V254.8C249.847 253.707 249.574 252.873 249.027 252.3C248.48 251.713 247.734 251.42 246.787 251.42C245.827 251.42 245.06 251.72 244.487 252.32C243.927 252.92 243.647 253.793 243.647 254.94V261H241.827V250.04H243.647V251.6C244.007 251.04 244.494 250.607 245.107 250.3C245.734 249.993 246.42 249.84 247.167 249.84ZM253.94 255.48C253.94 254.36 254.167 253.38 254.62 252.54C255.073 251.687 255.693 251.027 256.48 250.56C257.28 250.093 258.173 249.86 259.16 249.86C260.013 249.86 260.807 250.06 261.54 250.46C262.273 250.847 262.833 251.36 263.22 252V246.2H265.06V261H263.22V258.94C262.86 259.593 262.327 260.133 261.62 260.56C260.913 260.973 260.087 261.18 259.14 261.18C258.167 261.18 257.28 260.94 256.48 260.46C255.693 259.98 255.073 259.307 254.62 258.44C254.167 257.573 253.94 256.587 253.94 255.48ZM263.22 255.5C263.22 254.673 263.053 253.953 262.72 253.34C262.387 252.727 261.933 252.26 261.36 251.94C260.8 251.607 260.18 251.44 259.5 251.44C258.82 251.44 258.2 251.6 257.64 251.92C257.08 252.24 256.633 252.707 256.3 253.32C255.967 253.933 255.8 254.653 255.8 255.48C255.8 256.32 255.967 257.053 256.3 257.68C256.633 258.293 257.08 258.767 257.64 259.1C258.2 259.42 258.82 259.58 259.5 259.58C260.18 259.58 260.8 259.42 261.36 259.1C261.933 258.767 262.387 258.293 262.72 257.68C263.053 257.053 263.22 256.327 263.22 255.5ZM268.716 261.12C268.369 261.12 268.076 261 267.836 260.76C267.596 260.52 267.476 260.227 267.476 259.88C267.476 259.533 267.596 259.24 267.836 259C268.076 258.76 268.369 258.64 268.716 258.64C269.049 258.64 269.329 258.76 269.556 259C269.796 259.24 269.916 259.533 269.916 259.88C269.916 260.227 269.796 260.52 269.556 260.76C269.329 261 269.049 261.12 268.716 261.12Z" fill="#202023" fill-opacity="0.8"/>
<defs>
<filter id="filter0_d_82_2332" x="72.6822" y="18" width="206.636" height="188" filterUnits="userSpaceOnUse" color-interpolation-filters="sRGB">
<feFlood flood-opacity="0" result="BackgroundImageFix"/>
<feColorMatrix in="SourceAlpha" type="matrix" values="0 0 0 0 0 0 0 0 0 0 0 0 0 0 0 0 0 0 127 0" result="hardAlpha"/>
<feOffset dy="4"/>
<feGaussianBlur stdDeviation="5"/>
<feComposite in2="hardAlpha" operator="out"/>
<feColorMatrix type="matrix" values="0 0 0 0 0 0 0 0 0 0 0 0 0 0 0 0 0 0 0.25 0"/>
<feBlend mode="normal" in2="BackgroundImageFix" result="effect1_dropShadow_82_2332"/>
<feBlend mode="normal" in="SourceGraphic" in2="effect1_dropShadow_82_2332" result="shape"/>
</filter>
</defs>
</svg>
